<?xml version="1.0" standalone="no"?>
<!DOCTYPE svg PUBLIC "-//W3C//DTD SVG 20010904//EN"
 "http://www.w3.org/TR/2001/REC-SVG-20010904/DTD/svg10.dtd">
<svg version="1.0" xmlns="http://www.w3.org/2000/svg"
 width="623.000000pt" height="361.000000pt" viewBox="0 0 623.000000 361.000000"
 preserveAspectRatio="xMidYMid meet">

<g transform="translate(0.000000,361.000000) scale(0.100000,-0.100000)"
fill="#000000" stroke="none">
<path d="M475 3549 c-4 -6 -4 -13 -1 -16 3 -3 -3 -14 -15 -23 -11 -10 -19 -22
-17 -26 1 -5 -20 -49 -46 -99 -27 -49 -94 -173 -149 -275 -55 -102 -109 -197
-119 -212 -17 -25 -17 -55 0 -44 4 2 6 -111 5 -252 -2 -293 23 -958 38 -985
10 -18 55 -794 47 -802 -2 -2 -26 -7 -53 -10 -28 -4 -53 -9 -56 -11 -12 -7 -6
-218 5 -226 6 -4 33 -8 60 -8 46 0 48 -1 30 -15 -12 -9 -43 -14 -82 -15 -66 0
-87 -15 -63 -44 7 -8 10 -20 9 -27 -2 -8 3 -12 12 -10 27 7 74 1 81 -11 6 -9
11 -9 22 0 19 16 61 -5 65 -33 5 -36 24 -105 30 -105 3 0 14 7 24 17 10 9 18
11 18 5 0 -6 23 -10 61 -9 57 2 61 3 66 30 6 30 23 37 24 10 0 -15 2 -15 9 2
8 19 9 19 9 -2 1 -33 21 -28 22 5 1 22 3 23 6 5 6 -30 33 -39 33 -10 1 21 1
21 15 3 12 -16 27 -18 109 -17 90 2 96 0 96 -19 0 -11 3 -20 8 -21 4 0 18 -3
32 -5 16 -3 29 2 38 13 13 17 14 17 26 0 12 -16 14 -16 20 -1 10 25 7 32 -11
37 -10 3 1 4 25 4 23 0 42 -5 42 -11 0 -7 3 -7 8 1 8 13 172 14 172 0 0 -5 8
-6 18 -3 13 5 21 -1 29 -21 l10 -28 11 27 c10 25 13 26 97 26 79 -1 87 -2 95
-22 7 -17 9 -14 9 17 1 33 4 37 26 37 14 0 26 -4 26 -10 1 -5 3 -14 4 -20 1
-5 3 -19 4 -29 1 -19 15 -22 38 -8 6 4 13 2 15 -4 6 -18 38 2 38 25 0 37 14
39 27 4 11 -32 12 -32 19 -10 6 21 12 23 64 21 31 -1 62 1 68 5 8 5 17 -4 25
-24 l13 -31 13 27 c9 22 17 25 41 22 24 -4 30 -1 30 14 0 10 5 18 10 18 6 0
10 -10 10 -21 0 -17 3 -19 14 -10 7 6 27 8 45 5 18 -4 57 -1 87 6 50 12 56 12
70 -6 14 -18 15 -17 9 12 -5 27 30 433 40 459 2 6 4 -63 4 -152 1 -131 -2
-164 -14 -177 -18 -18 -20 -37 -3 -34 8 2 15 -21 21 -69 8 -67 11 -72 35 -78
15 -3 41 -1 59 4 17 5 34 7 37 4 6 -7 30 17 38 38 7 18 65 23 425 34 l171 5
12 -70 c7 -39 14 -70 17 -70 14 0 32 32 38 66 16 95 16 95 37 88 16 -5 19 -3
12 7 -6 11 -4 11 9 0 15 -12 34 -12 115 -3 53 7 144 12 202 12 58 0 143 4 188
9 46 5 93 6 104 3 17 -4 19 0 16 24 -3 25 -10 31 -53 46 l-50 16 35 2 c19 1
39 2 44 1 15 -3 46 10 46 19 0 5 -8 7 -17 3 -15 -5 -14 -2 4 17 24 26 59 21
49 -6 -4 -9 -1 -22 4 -30 6 -7 13 -34 16 -60 5 -55 11 -65 25 -44 8 13 13 11
29 -9 17 -20 23 -21 36 -11 10 9 46 13 113 11 90 -1 103 1 162 28 62 29 71 30
256 37 252 9 271 4 313 -79 23 -46 31 -55 36 -41 3 11 10 30 14 44 5 14 12 46
16 73 7 52 18 61 28 21 5 -20 10 -23 20 -15 7 6 65 13 127 16 63 2 130 9 149
15 58 17 68 14 75 -28 9 -53 20 -69 38 -54 7 7 17 9 20 6 3 -3 9 11 12 32 4
22 10 53 15 69 l7 30 8 -27 c4 -15 14 -27 23 -27 10 0 55 0 101 -1 46 0 86 2
89 4 3 3 11 1 18 -5 9 -7 14 -2 19 22 7 31 8 32 22 13 7 -10 16 -18 18 -16 21
11 34 -4 45 -48 12 -49 22 -61 35 -40 3 6 15 10 25 10 13 0 22 9 26 28 3 15
12 43 19 62 l13 35 7 -37 c8 -42 12 -45 29 -23 7 10 33 17 71 19 52 4 60 7 63
25 4 28 22 16 22 -14 0 -13 4 -27 10 -30 5 -3 10 2 10 13 0 10 6 19 13 19 6 1
38 2 69 4 49 2 58 5 61 23 4 20 5 20 12 -2 11 -32 29 -22 35 19 l5 34 68 3 67
3 0 454 0 455 -150 0 c-127 0 -150 2 -150 15 0 12 15 15 75 15 l75 0 0 134 0
134 -196 7 c-135 5 -204 12 -223 21 -14 8 -33 14 -42 14 -81 0 -370 163 -361
204 3 12 -1 17 -10 14 -7 -3 -13 -13 -13 -24 0 -14 -16 -24 -65 -42 -65 -23
-66 -23 -173 -8 -60 9 -113 13 -118 10 -5 -3 -9 -14 -9 -25 0 -10 -4 -19 -10
-19 -9 0 -9 534 0 543 6 6 304 67 325 67 13 0 15 -29 15 -209 0 -147 -3 -210
-11 -213 -26 -9 23 -38 64 -38 51 0 70 11 65 36 -2 14 -10 18 -31 16 l-27 -3
2 208 3 208 27 0 c15 1 33 8 40 16 8 9 54 23 113 34 55 10 106 20 113 22 25
10 11 20 -25 19 -36 -1 -38 1 -41 32 -3 31 -5 32 -43 30 -21 -2 -39 -7 -39
-11 0 -5 -4 -5 -10 -2 -5 3 -19 1 -30 -5 -11 -6 -40 -12 -64 -14 -24 -2 -48
-6 -52 -8 -10 -6 -76 -21 -274 -64 -69 -15 -128 -32 -132 -38 -4 -6 -8 1 -8
17 0 33 -12 35 -33 5 -14 -21 -15 -21 -12 -3 2 11 7 37 10 58 3 21 10 35 16
32 5 -4 9 18 9 52 0 42 -3 54 -10 43 -8 -11 -9 -7 -4 14 4 17 8 59 8 95 1 52
4 66 17 69 9 2 50 -22 90 -53 41 -30 78 -55 84 -55 5 0 -25 25 -68 56 -51 37
-76 62 -73 71 3 8 2 12 -3 9 -5 -3 -28 8 -52 24 -54 36 -69 37 -69 6 0 -13 -5
-26 -12 -28 -6 -2 -13 -15 -15 -29 -2 -13 -40 -125 -86 -249 l-82 -225 5 -325
c3 -179 2 -329 -2 -334 -4 -5 -28 0 -55 12 -90 38 -158 44 -319 27 -81 -8
-156 -15 -167 -15 -19 0 -19 4 -13 98 4 53 7 228 7 387 l1 290 -96 234 c-53
129 -96 242 -96 252 0 11 -5 19 -11 19 -5 0 -8 4 -5 9 3 5 -1 14 -9 21 -9 7
-13 21 -10 31 9 29 -17 24 -93 -17 -61 -34 -117 -72 -64 -45 40 21 19 -12 -23
-37 -11 -6 -15 -12 -9 -12 6 0 23 9 38 21 49 38 61 25 64 -74 1 -48 7 -87 12
-87 9 0 18 -33 25 -89 5 -35 -2 -39 -20 -14 -9 12 -10 25 -4 42 11 27 3 43
-11 21 -15 -25 -11 -180 5 -197 8 -8 13 -19 10 -24 -10 -14 -25 -10 -25 7 0 8
-4 13 -10 9 -5 -3 -7 -12 -4 -19 3 -8 0 -17 -6 -21 -17 -11 -23 1 -11 24 6 11
7 22 2 25 -5 3 -100 22 -212 41 -112 20 -229 40 -259 46 -30 5 -82 15 -115 20
-33 6 -61 14 -62 17 -2 4 -25 5 -53 4 -46 -4 -55 -10 -51 -36 1 -4 -1 -17 -4
-27 -5 -16 -13 -18 -46 -13 -24 4 -39 3 -39 -4 0 -12 10 -14 165 -38 65 -10
113 -23 118 -31 4 -7 19 -13 32 -13 l25 0 3 -217 2 -218 3 218 c2 202 3 218
20 215 15 -3 17 -23 20 -225 l2 -222 -41 1 c-50 1 -64 -11 -45 -37 21 -28 122
-28 142 0 14 18 13 20 -16 28 l-30 8 0 224 0 225 23 0 c29 0 410 -60 416 -65
11 -12 13 -241 6 -788 l-7 -608 -22 7 c-11 4 -184 6 -383 5 l-363 -1 0 39 0
38 193 8 c111 4 195 11 198 17 4 6 59 13 123 16 64 2 116 9 116 13 0 5 13 9
29 9 22 0 36 8 52 32 48 67 33 314 -27 435 -35 73 -108 123 -180 123 -13 0
-24 5 -24 10 0 6 -31 10 -72 10 -40 0 -78 4 -84 8 -14 9 -24 61 -13 68 5 3 9
21 9 40 0 25 -4 34 -16 34 -11 0 -15 -6 -11 -20 3 -11 2 -20 -3 -20 -4 0 -27
-25 -51 -55 -38 -47 -53 -57 -105 -74 -34 -11 -108 -25 -165 -32 -57 -6 -109
-16 -116 -21 -7 -5 -40 -7 -75 -4 -35 3 -191 8 -348 11 -157 3 -319 8 -361 11
-83 7 -214 -11 -226 -29 -4 -7 -10 -30 -13 -52 -5 -37 -7 -33 -33 70 -16 61
-30 116 -33 123 -3 10 -18 12 -61 7 -32 -4 -61 -8 -64 -9 -12 -3 -178 120
-179 132 0 7 -4 10 -10 7 -5 -3 -10 1 -10 9 0 8 5 18 10 21 15 9 2 25 -21 25
-17 0 -19 -5 -14 -32 6 -31 -1 -41 -92 -141 l-98 -107 -245 5 -245 6 0 424 c0
233 2 425 5 428 8 7 613 47 619 41 3 -3 6 -94 6 -202 0 -110 3 -175 7 -147 3
28 7 116 7 198 1 82 5 147 10 147 41 0 41 -2 41 -262 l0 -250 -27 2 c-49 4
-63 0 -63 -14 0 -8 10 -22 22 -30 27 -19 138 -22 156 -4 15 15 16 48 2 48 -6
0 -10 92 -10 255 0 213 2 255 14 255 8 0 16 5 18 11 2 6 62 15 148 20 191 13
230 18 230 30 0 5 -12 9 -28 9 -21 0 -32 8 -46 35 -11 19 -21 33 -24 30 -3 -2
1 -11 8 -20 16 -20 12 -24 -34 -29 -31 -4 -37 -3 -32 10 4 9 2 12 -5 8 -11 -6
-29 12 -29 29 0 5 14 7 32 5 25 -2 34 -9 39 -28 l7 -25 1 26 c1 14 7 31 14 38
10 10 -1 12 -55 9 -36 -2 -64 0 -62 3 2 3 -8 11 -22 18 -35 16 -44 13 -14 -4
14 -8 21 -15 15 -16 -5 -1 -19 -3 -30 -5 -11 -2 -55 -7 -97 -10 -68 -6 -81 -4
-115 16 -31 18 -33 18 -14 2 l24 -19 -23 -6 c-15 -4 -28 0 -39 12 -17 20 -91
66 -91 57 0 -3 20 -17 45 -32 25 -14 45 -30 45 -35 0 -5 -2 -9 -3 -9 -2 0
-116 -9 -253 -20 -137 -10 -273 -20 -301 -21 -70 -3 -83 -12 -53 -37 21 -17
21 -50 0 -37 -5 3 -20 1 -35 -5 -14 -5 -24 -6 -21 -1 3 5 2 22 -4 37 -9 30
-15 100 -26 309 -12 217 -15 198 29 206 34 5 46 0 132 -57 51 -34 96 -59 99
-56 3 3 6 0 6 -7 0 -7 5 -9 10 -6 6 3 10 1 10 -5 0 -6 5 -8 10 -5 6 4 -44 41
-112 82 -68 42 -127 80 -133 85 -5 6 49 -19 120 -55 72 -35 136 -62 144 -59 8
2 11 0 7 -6 -3 -5 1 -13 10 -16 21 -8 24 -8 24 5 0 5 -4 8 -9 5 -5 -3 -11 1
-15 9 -3 8 -14 15 -23 15 -10 0 -27 6 -38 14 -19 13 -361 176 -370 176 -2 0
-7 -5 -10 -11z m87 -65 c-24 -19 -27 -17 -30 11 -2 23 0 24 23 13 23 -10 23
-12 7 -24z m-111 -134 c-6 -19 -24 -102 -41 -185 -17 -82 -34 -163 -37 -180
-3 -16 -7 -41 -9 -55 -1 -13 -8 -26 -13 -28 -6 -2 -9 -8 -5 -13 3 -5 -17 -9
-45 -9 -42 0 -51 -3 -52 -17 0 -14 -2 -13 -9 5 -5 12 -12 22 -15 22 -4 0 -3
-4 0 -10 3 -5 1 -10 -4 -10 -6 0 -11 5 -11 10 0 6 -12 10 -26 10 l-26 0 50 93
c27 50 93 176 148 280 88 166 99 184 102 155 2 -18 -1 -49 -7 -68z m45 75 c-9
-9 -16 -13 -16 -8 0 12 22 34 28 28 2 -2 -3 -11 -12 -20z m54 -2 c0 -5 -5 -15
-10 -23 -8 -12 -10 -11 -10 8 0 12 5 22 10 22 6 0 10 -3 10 -7z m-56 -148 c-9
-13 -20 -22 -25 -19 -7 4 -15 -255 -12 -353 1 -20 -37 -15 -44 5 -4 9 -10 20
-15 23 -9 6 47 304 62 331 6 10 10 34 10 53 0 20 8 50 18 68 l17 32 3 -57 c2
-41 -2 -65 -14 -83z m66 51 c0 -40 -5 -60 -21 -77 l-20 -24 7 24 c4 16 3 21
-5 17 -6 -4 -11 -18 -11 -32 0 -17 -4 -23 -12 -18 -10 6 -10 4 0 -7 16 -17 15
-59 -2 -81 -21 -28 -26 -22 -26 31 0 35 7 58 26 86 14 22 28 51 29 67 4 28 22
68 30 68 3 0 5 -24 5 -54z m10 -101 c0 -14 -4 -25 -10 -25 -11 0 -14 33 -3 43
11 11 13 8 13 -18z m0 -73 c0 -8 -9 -25 -20 -39 l-20 -26 -1 37 c-2 48 -2 74
0 84 2 11 41 -41 41 -56z m3170 48 c0 -5 -4 -10 -10 -10 -5 0 -10 5 -10 10 0
6 5 10 10 10 6 0 10 -4 10 -10z m-13 -72 c-3 -8 -6 -5 -6 6 -1 11 2 17 5 13 3
-3 4 -12 1 -19z m41 0 c1 -7 6 -33 11 -58 6 -25 10 -54 10 -65 0 -18 -1 -17
-14 5 -20 35 -20 2 0 -36 8 -16 15 -41 15 -55 0 -14 6 -39 14 -55 8 -16 18
-59 21 -96 6 -59 5 -68 -9 -68 -13 0 -16 13 -16 78 0 67 -3 81 -23 102 -22 23
-24 36 -26 143 -1 64 2 117 7 117 5 0 9 -6 10 -12z m-3268 -138 c-6 -11 -15
-20 -20 -20 -17 0 -11 90 8 122 l17 29 3 -55 c2 -31 -2 -65 -8 -76z m80 88 c0
-29 -2 -31 -15 -17 -9 9 -13 23 -9 32 10 28 24 19 24 -15z m3319 -196 c45
-111 81 -206 81 -211 0 -5 -9 -11 -20 -14 -11 -3 -20 -1 -20 4 0 5 -5 9 -11 9
-5 0 -8 -4 -5 -8 3 -5 -8 -6 -24 -4 -16 2 -32 12 -35 21 -8 27 -57 333 -62
386 -5 67 0 57 96 -183z m-3319 131 c0 -5 -11 -19 -24 -32 l-23 -22 1 58 1 59
23 -27 c12 -15 22 -31 22 -36z m3152 22 c3 -45 -4 -59 -16 -29 -9 24 -7 74 3
74 5 0 11 -20 13 -45z m1078 -6 c0 -5 -4 -9 -10 -9 -5 0 -10 7 -10 16 0 8 5
12 10 9 6 -3 10 -10 10 -16z m-3222 -45 c4 -40 -28 -43 -51 -4 -23 38 -22 40
16 37 28 -2 32 -6 35 -33z m-98 -3 c0 -39 -24 -46 -45 -15 -9 14 -19 23 -22
20 -3 -3 -1 -12 5 -19 7 -8 9 -17 5 -20 -13 -13 -23 -7 -24 16 0 22 0 22 -9 1
-4 -12 -18 -24 -29 -27 -12 -3 -19 -1 -15 4 3 5 0 9 -5 9 -6 0 -11 -4 -11 -8
0 -5 -7 -9 -15 -9 -9 0 -15 10 -16 26 l-1 26 -7 -24 c-3 -13 -15 -25 -25 -27
-13 -2 -17 2 -13 16 3 11 2 19 -2 18 -20 -2 -32 3 -29 14 7 20 51 19 80 -2 30
-22 49 -27 30 -8 -23 23 -12 31 33 25 27 -4 45 -3 45 3 0 6 16 10 35 10 32 0
35 -3 35 -29z m140 -13 c0 -5 -7 -8 -15 -8 -10 0 -15 10 -15 27 0 26 1 26 15
7 8 -10 15 -22 15 -26z m-100 -5 c0 -24 -25 -9 -28 17 -3 21 -2 22 12 11 9 -7
16 -20 16 -28z m-312 11 c33 -23 27 -41 -14 -42 -28 -1 -35 2 -30 14 3 9 2 12
-5 9 -12 -8 -41 14 -33 26 8 14 58 10 82 -7z m3562 -135 c0 -97 -4 -148 -10
-144 -5 3 -10 2 -10 -4 0 -5 5 -11 12 -13 8 -3 5 -12 -10 -28 l-22 -24 0 35
c0 19 7 47 15 63 19 35 19 57 1 33 -13 -16 -14 -16 -18 7 -3 13 3 41 14 62 21
43 23 58 7 48 -10 -6 -9 15 6 94 5 23 4 22 10 22 3 0 5 -68 5 -151z m-4193 84
c-3 -2 -14 1 -25 8 -20 12 -20 13 2 30 20 17 21 17 24 -8 2 -14 1 -27 -1 -30z
m541 41 c31 -21 23 -37 -20 -39 -29 -2 -38 2 -52 26 l-17 29 33 0 c19 0 44 -7
56 -16z m-616 -49 c-3 -11 -7 -14 -10 -7 -2 6 -10 12 -18 12 -12 0 -12 4 3 24
15 20 19 22 24 8 3 -9 4 -26 1 -37z m434 34 c25 -20 16 -39 -17 -39 -30 0 -69
30 -69 53 0 12 67 2 86 -14z m96 4 c27 -24 22 -33 -18 -33 -25 0 -43 7 -55 22
-11 11 -19 23 -19 25 0 11 77 0 92 -14z m-181 -14 c14 -22 6 -32 -29 -35 -22
-3 -32 0 -32 10 0 8 -7 16 -15 20 -8 3 -15 10 -15 17 0 15 80 5 91 -12z m-97
-5 c22 -22 20 -31 -9 -37 -26 -4 -75 24 -75 44 0 15 67 10 84 -7z m3952 -147
c-8 -50 -18 -117 -22 -147 -6 -51 -28 -110 -40 -110 -3 0 -2 5 1 10 8 13 -8
13 -21 0 -5 -5 -19 -7 -30 -4 l-22 6 25 66 c13 37 45 126 71 197 53 146 64
141 38 -18z m96 125 c3 -9 1 -26 -3 -37 -6 -15 -8 -11 -8 18 -1 40 4 48 11 19z
m-3422 -287 l0 -255 -25 0 -25 0 0 255 0 255 25 0 25 0 0 -255z m2400 169 c0
-24 -2 -44 -4 -44 -2 0 -11 12 -21 26 -13 20 -14 28 -4 40 8 10 8 14 0 14 -6
0 -11 12 -11 28 l1 27 19 -24 c13 -15 20 -38 20 -67z m-3590 66 c0 -5 -7 -10
-15 -10 -8 0 -15 5 -15 10 0 6 7 10 15 10 8 0 15 -4 15 -10z m133 3 c-13 -2
-35 -2 -50 0 -16 2 -5 4 22 4 28 0 40 -2 28 -4z m2639 -15 c9 -7 18 -20 21
-28 4 -12 6 -11 6 3 1 11 9 17 25 17 27 0 43 -28 25 -44 -9 -8 -10 -6 -5 8 7
19 6 19 -13 2 -15 -14 -24 -16 -34 -8 -7 6 -25 9 -40 8 -33 -4 -42 7 -27 34
12 23 20 25 42 8z m743 3 c3 -5 1 -12 -5 -16 -5 -3 -10 1 -10 9 0 18 6 21 15
7z m-3441 -25 l86 7 0 -1012 0 -1011 -58 0 -58 0 -20 398 c-11 218 -17 400
-12 403 8 5 2 147 -29 619 -9 140 -18 336 -20 434 -4 157 -3 178 10 168 10 -9
39 -10 101 -6z m176 -1001 l-2 -1015 -35 0 -36 0 6 1005 c3 553 9 1010 12
1015 3 6 17 10 31 10 l25 0 -1 -1015z m68 981 l-2 -34 -23 21 c-12 12 -23 25
-23 29 0 6 19 13 43 17 4 0 7 -14 5 -33z m82 2 c0 -31 0 -31 -21 -12 -19 17
-19 19 -3 31 24 17 24 17 24 -19z m2524 5 c4 -9 1 -21 -5 -27 -9 -8 -10 -7 -6
7 4 9 2 17 -3 17 -6 0 -10 -7 -10 -15 0 -8 -6 -15 -13 -15 -20 0 -25 9 -20 31
7 24 48 26 57 2z m610 -62 c-3 -11 -9 -9 -21 8 -13 19 -13 27 -3 49 l13 27 8
-35 c5 -19 6 -41 3 -49z m-544 59 c0 -5 -4 -10 -10 -10 -5 0 -10 -7 -10 -15 0
-8 -9 -15 -20 -15 -23 0 -24 4 -10 31 11 20 50 27 50 9z m68 -24 c2 -10 -2
-23 -9 -30 -9 -8 -11 -7 -6 6 5 15 4 16 -13 6 -25 -16 -35 -5 -20 22 13 25 43
23 48 -4z m67 -7 c4 -12 2 -26 -5 -33 -10 -8 -12 -7 -7 7 4 9 2 17 -3 17 -6 0
-10 -4 -10 -10 0 -5 -7 -10 -15 -10 -18 0 -20 21 -3 38 18 18 36 14 43 -9z
m1485 -29 c-15 -28 -17 -25 -12 16 4 29 7 33 14 21 5 -11 5 -24 -2 -37z
m-4316 21 c17 -19 17 -20 -3 -31 -19 -10 -21 -8 -21 20 0 35 1 36 24 11z
m2706 15 c0 -3 -4 -8 -10 -11 -5 -3 -10 -1 -10 4 0 6 5 11 10 11 6 0 10 -2 10
-4z m193 -21 c7 -17 -8 -28 -38 -30 -17 0 -20 4 -17 22 5 26 46 32 55 8z m67
-24 c1 -14 2 -14 11 2 15 26 49 22 49 -5 1 -21 2 -22 14 -5 17 21 42 22 50 1
4 -12 2 -15 -9 -10 -8 3 -15 1 -15 -4 0 -6 5 -10 12 -10 6 0 9 -2 7 -5 -3 -2
-20 0 -39 5 -18 5 -48 11 -66 12 -24 1 -31 6 -26 17 4 13 2 14 -9 4 -15 -15
-39 -17 -39 -4 0 5 7 17 16 26 18 18 44 5 44 -24z m-2870 19 c17 -10 14 -15
-17 -24 -19 -6 -23 -3 -23 13 0 22 16 27 40 11z m3180 -25 c0 -7 5 -15 11 -17
7 -2 5 -9 -5 -17 -14 -12 -16 -12 -10 3 4 11 2 15 -8 11 -13 -5 -17 14 -9 43
3 9 21 -11 21 -23z m-133 -22 c0 -16 -2 -22 -4 -15 -4 9 -8 10 -18 2 -8 -7
-15 -7 -19 -1 -10 15 5 41 24 41 12 0 17 -8 17 -27z m1843 7 c0 -23 -10 -26
-29 -7 -10 10 -11 9 -6 -5 10 -27 -33 -34 -56 -9 -24 25 -24 31 -1 31 11 0 24
-10 30 -22 10 -22 11 -22 11 -2 1 26 9 34 33 34 11 0 18 -7 18 -20z m-4962
-33 l-3 -25 -25 20 c-24 19 -24 20 -5 34 23 17 38 5 33 -29z m82 3 l0 -31 -22
21 c-19 18 -20 22 -8 30 24 16 30 12 30 -20z m4754 15 c3 -8 11 -14 17 -13 6
2 14 -3 16 -10 3 -8 -1 -10 -13 -5 -12 5 -15 3 -9 -6 6 -10 3 -11 -13 -2 -11
6 -23 16 -26 23 -3 7 -3 3 0 -9 3 -13 1 -23 -5 -23 -12 0 -15 43 -4 53 11 12
31 8 37 -8z m-54 -30 c0 -19 -19 -19 -26 0 -4 8 -10 12 -15 9 -10 -6 -12 9 -3
19 10 10 44 -12 44 -28z m-574 -93 c-13 -13 -16 9 -9 59 l8 54 3 -54 c2 -29 1
-56 -2 -59z m511 93 c7 -20 -1 -28 -30 -31 -12 -1 -23 -3 -24 -3 -2 -1 -6 -1
-10 -2 -5 0 -13 -5 -20 -11 -9 -7 -11 -1 -11 21 1 31 20 42 34 20 5 -8 10 -6
16 5 11 20 37 21 45 1z m-4736 -21 c10 -13 10 -17 -2 -25 -23 -14 -29 -11 -29
16 0 29 12 32 31 9z m4623 0 c3 -9 2 -23 -4 -32 -8 -14 -9 -14 -10 -2 0 12 -2
13 -9 1 -7 -10 -10 -10 -16 -1 -4 7 -1 16 6 21 11 7 11 9 1 9 -7 0 -10 5 -7
10 9 15 32 12 39 -6z m146 6 c0 -5 -4 -10 -10 -10 -5 0 -10 5 -10 10 0 6 5 10
10 10 6 0 10 -4 10 -10z m-4685 -13 c18 -14 15 -18 -17 -30 -14 -5 -18 -1 -18
18 0 28 8 31 35 12z m4483 -15 c2 -12 0 -22 -5 -22 -12 0 -33 37 -26 44 12 12
28 0 31 -22z m-1098 8 c0 -5 -5 -10 -11 -10 -5 0 -7 5 -4 10 3 6 8 10 11 10 2
0 4 -4 4 -10z m1050 -26 c0 -18 -10 -17 -35 2 -17 12 -18 16 -5 24 17 10 40
-5 40 -26z m-242 2 c0 -15 -7 -26 -19 -29 -23 -6 -23 -3 -3 28 20 31 22 31 22
1z m-1060 -10 c-2 -1 -10 -7 -19 -14 -14 -11 -16 -9 -11 13 3 21 7 23 18 14 8
-7 13 -12 12 -13z m77 -4 c1 -18 -2 -21 -19 -16 -28 9 -29 11 -22 29 9 24 39
14 41 -13z m43 -398 c3 -396 -3 -528 -18 -429 -3 22 -7 224 -8 448 -2 331 0
408 10 405 10 -4 14 -92 16 -424z m992 404 c0 -16 -3 -19 -11 -11 -6 6 -8 16
-5 22 11 17 16 13 16 -11z m137 6 c2 -6 -7 -18 -20 -27 -22 -14 -23 -14 -25
15 -2 25 1 29 20 26 12 -2 23 -8 25 -14z m-999 -7 c14 1 22 -5 22 -16 0 -9 -7
-160 -15 -336 -8 -176 -15 -334 -15 -351 0 -26 -8 -36 -50 -62 l-50 -31 0 405
0 406 43 -8 c23 -4 52 -7 65 -7z m942 -6 c0 -21 -26 -36 -35 -21 -4 6 0 10 7
11 10 0 10 2 1 6 -20 8 -15 23 7 23 13 0 20 -7 20 -19z m-4390 -26 l0 -34 -27
25 c-23 21 -25 27 -13 34 28 18 40 11 40 -25z m86 1 c5 -30 -2 -33 -28 -9 -23
20 -23 30 0 35 22 5 22 5 28 -26z m4634 -182 c0 -175 -2 -204 -15 -204 -13 0
-15 29 -15 203 0 112 3 207 6 210 19 19 24 -23 24 -209z m-380 196 c0 -5 -2
-10 -4 -10 -3 0 -8 5 -11 10 -3 6 -1 10 4 10 6 0 11 -4 11 -10z m-1140 -25 c0
-8 -6 -15 -14 -15 -20 0 -29 17 -14 23 22 9 28 7 28 -8z m60 5 c8 -5 11 -12 7
-16 -4 -4 -15 0 -24 9 -18 18 -8 23 17 7z m-3286 -29 c17 -18 17 -20 -2 -30
-17 -9 -20 -7 -24 19 -5 35 2 38 26 11z m90 -6 c22 -17 21 -20 -11 -29 -20 -6
-23 -4 -23 18 0 29 7 32 34 11z m3195 -1 c6 4 11 4 12 -1 0 -4 2 -18 5 -30 2
-13 -1 -23 -6 -23 -6 0 -10 4 -10 10 0 5 -6 7 -14 4 -11 -4 -14 2 -14 26 1 18
4 26 8 19 4 -6 13 -8 19 -5z m-63 -15 c6 -10 -11 -28 -28 -29 -5 0 -4 19 1 38
2 7 21 1 27 -9z m886 -6 c-27 -10 1 -23 37 -17 l38 6 8 -305 c4 -168 4 -311 0
-316 -3 -6 -24 -11 -46 -11 l-39 0 -1 108 c0 59 -2 132 -4 162 -16 327 -16
361 -4 376 6 8 15 12 18 8 3 -4 0 -9 -7 -11z m238 -13 c0 -11 -4 -20 -10 -20
-5 0 -7 -6 -4 -14 3 -8 0 -17 -6 -21 -10 -6 -12 49 -3 68 8 15 23 6 23 -13z
m-123 -462 c-1 -90 -3 -19 -3 157 0 176 2 249 3 163 2 -86 2 -230 0 -320z m51
450 c-7 -45 -38 -68 -38 -28 0 11 4 20 10 20 5 0 7 7 4 15 -4 10 0 15 10 15
12 0 16 -7 14 -22z m-4248 -25 l0 -36 -22 19 c-13 10 -25 20 -28 22 -6 4 30
32 42 32 4 0 8 -16 8 -37z m82 7 c5 -34 0 -36 -28 -15 -19 15 -19 15 0 30 25
19 23 20 28 -15z m3114 -17 c-3 -3 -13 -2 -23 1 -17 7 -17 8 2 22 18 13 20 13
23 -1 2 -9 1 -19 -2 -22z m72 8 c3 -8 -1 -12 -9 -9 -7 2 -15 10 -17 17 -3 8 1
12 9 9 7 -2 15 -10 17 -17z m-3288 -61 c-25 -16 -30 -12 -30 22 l0 32 23 -22
c19 -19 20 -24 7 -32z m3279 40 c10 -5 19 -20 19 -33 0 -22 -3 -23 -24 -13
-26 12 -30 21 -13 32 8 4 7 9 -2 15 -19 12 -2 11 20 -1z m-3195 -16 c23 -9 20
-19 -9 -32 -23 -11 -25 -10 -25 13 0 26 7 29 34 19z m3132 -5 c6 -10 -11 -28
-28 -29 -5 0 -4 19 1 38 2 7 21 1 27 -9z m1050 -22 c-3 -28 -14 -47 -27 -47
-13 0 -8 62 6 72 14 11 24 0 21 -25z m74 13 c0 -11 -4 -20 -10 -20 -5 0 -7 -6
-4 -14 3 -8 0 -17 -6 -21 -10 -6 -12 49 -3 68 8 15 23 6 23 -13z m-50 -20 c0
-5 -2 -10 -4 -10 -3 0 -8 5 -11 10 -3 6 -1 10 4 10 6 0 11 -4 11 -10z m-1078
-32 c-6 -6 -16 -7 -23 -3 -9 6 -7 12 7 22 21 15 34 -1 16 -19z m-3192 -8 c0
-30 0 -30 -25 -14 -28 18 -32 30 -12 37 28 12 37 6 37 -23z m83 3 c7 -38 1
-41 -26 -15 -19 19 -20 24 -7 32 23 15 27 12 33 -17z m3182 17 c3 -5 -1 -10
-9 -10 -8 0 -18 5 -21 10 -3 6 1 10 9 10 8 0 18 -4 21 -10z m982 -53 c-4 -37
-13 -57 -28 -57 -14 0 -6 64 11 77 21 17 21 17 17 -20z m69 -15 c-4 -3 -11 -1
-18 6 -8 8 -8 15 3 28 13 16 14 16 17 -5 2 -13 1 -25 -2 -29z m-1040 9 c1 -15
-3 -20 -13 -17 -8 3 -19 6 -24 6 -14 0 -11 28 4 33 21 9 32 1 33 -22z m-3303
-28 c-15 -12 -18 -11 -24 4 -11 32 1 46 23 26 18 -17 19 -18 1 -30z m3227 33
c0 -7 -8 -16 -18 -18 -12 -4 -18 1 -18 13 0 12 7 19 18 19 10 0 18 -6 18 -14z
m-3135 -10 c18 -13 18 -14 -3 -25 -29 -16 -32 -14 -32 14 0 28 8 31 35 11z
m4205 -2 c0 -8 -5 -12 -10 -9 -6 4 -8 11 -5 16 9 14 15 11 15 -7z m50 -19 c0
-1 -7 -8 -15 -15 -13 -10 -15 -9 -15 8 0 15 5 20 15 16 8 -4 15 -7 15 -9z
m-1120 -9 c0 -18 -17 -29 -30 -21 -8 5 -7 11 1 21 15 18 29 18 29 0z m70 -8
c0 -6 -7 -7 -16 -4 -9 3 -18 6 -20 6 -3 0 -3 4 1 10 7 11 35 2 35 -12z m-3270
-29 c0 -30 -1 -31 -22 -17 -38 25 -33 39 15 47 4 0 7 -13 7 -30z m81 19 c0 -7
2 -21 4 -30 4 -22 -4 -23 -34 -1 -23 15 -23 17 -6 30 23 16 35 17 36 1z m3181
-21 c14 -5 23 -47 10 -47 -19 0 -39 24 -39 46 0 14 2 22 6 17 3 -5 14 -12 23
-16z m1056 -12 c-2 -10 -7 -12 -17 -5 -13 7 -13 11 -1 25 15 18 24 8 18 -20z
m-71 -3 c-4 -33 -14 -52 -28 -52 -13 0 -7 62 6 72 19 14 25 8 22 -20z m-1050
2 c2 -5 -5 -14 -15 -21 -16 -9 -18 -8 -16 11 1 11 3 23 3 24 2 7 25 -5 28 -14z
m-3217 -54 c-25 -16 -30 -12 -30 22 l0 32 23 -22 c19 -19 20 -24 7 -32z m4290
40 c0 -5 -2 -10 -4 -10 -3 0 -8 5 -11 10 -3 6 -1 10 4 10 6 0 11 -4 11 -10z
m-4205 -16 c17 -13 18 -16 5 -24 -26 -16 -40 -11 -40 15 0 29 7 30 35 9z
m4249 -5 c-8 -14 -24 -10 -24 6 0 9 6 12 15 9 8 -4 12 -10 9 -15z m-1114 -14
c0 -8 -6 -15 -14 -15 -20 0 -29 17 -14 23 22 9 28 7 28 -8z m70 -7 c0 -6 -7
-7 -16 -4 -9 3 -18 6 -20 6 -3 0 -3 4 1 10 7 11 35 2 35 -12z m-2426 -54 c15
-31 24 -60 19 -65 -4 -4 -30 -11 -57 -15 -40 -5 -48 -4 -44 7 3 8 14 40 24 72
10 31 20 57 24 57 3 0 18 -25 34 -56z m3476 31 c0 -18 -4 -23 -15 -19 -25 10
-19 33 13 43 1 1 2 -10 2 -24z m-4320 -20 l0 -35 -25 16 c-14 9 -25 20 -25 25
0 8 26 23 48 28 1 1 2 -15 2 -34z m84 -3 c4 -37 -4 -40 -30 -11 -18 20 -18 21
0 35 24 17 25 16 30 -24z m855 -32 c31 -21 32 -24 15 -31 -31 -12 -74 -10 -74
4 0 7 -9 29 -20 50 -27 50 -25 53 13 25 17 -13 47 -35 66 -48z m3311 55 c0 -8
-5 -15 -11 -15 -8 0 -8 -4 0 -14 10 -12 8 -17 -8 -26 -23 -12 -24 -8 -15 39 7
31 34 44 34 16z m-3493 -60 c-21 -55 -26 -60 -61 -67 -22 -5 -40 -7 -42 -6 -1
2 25 34 58 71 33 37 62 66 64 64 2 -2 -7 -30 -19 -62z m2439 44 c3 -6 0 -15
-7 -20 -14 -8 -32 9 -23 23 7 11 22 10 30 -3z m80 -15 c1 -16 -3 -20 -18 -16
-22 5 -31 18 -23 33 11 17 40 5 41 -17z m994 10 c0 -8 -5 -12 -10 -9 -6 4 -8
11 -5 16 9 14 15 11 15 -7z m40 -25 c0 -5 -4 -9 -10 -9 -5 0 -10 7 -10 16 0 8
5 12 10 9 6 -3 10 -10 10 -16z m-4316 -28 c3 -4 -6 -13 -19 -19 -24 -11 -25
-10 -25 19 0 26 2 29 19 19 11 -5 22 -14 25 -19z m81 -1 c5 -8 -24 -30 -39
-30 -3 0 -6 14 -6 30 0 27 2 30 19 20 11 -5 23 -14 26 -20z m3121 -7 c-3 -3
-13 -2 -23 1 -17 7 -17 8 2 22 18 13 20 13 23 -1 2 -9 1 -19 -2 -22z m-532
-42 c-5 -7 -74 -12 -74 -5 0 5 15 23 33 42 l32 33 5 -33 c3 -18 5 -35 4 -37z
m601 58 c12 -19 -5 -23 -22 -6 -16 16 -16 17 -1 17 9 0 20 -5 23 -11z m1051
-37 c-4 -3 -12 0 -19 7 -9 9 -9 14 3 21 11 7 16 5 18 -6 2 -9 1 -18 -2 -22z
m-66 13 c0 -8 5 -15 12 -15 6 0 9 -3 6 -6 -8 -8 -48 14 -48 26 0 6 7 10 15 10
8 0 15 -7 15 -15z m-974 -36 c2 -30 -14 -62 -27 -54 -15 10 -10 25 9 25 15 1
14 2 -3 12 -29 16 -29 16 -15 33 18 21 35 14 36 -16z m-3276 -9 c0 -28 -1 -29
-25 -18 -28 13 -30 19 -13 36 21 21 38 13 38 -18z m82 0 c5 -35 4 -36 -28 -11
-23 18 -24 20 -7 30 27 16 30 14 35 -19z m3115 13 c2 -6 -5 -13 -16 -16 -18
-4 -19 0 -12 31 2 8 25 -5 28 -15z m1042 3 c10 -12 8 -17 -8 -26 -19 -9 -21
-8 -21 15 0 28 12 32 29 11z m75 -5 c3 -5 -1 -11 -9 -15 -9 -3 -15 0 -15 9 0
16 16 20 24 6z m414 -23 c3 -25 3 -25 -42 -15 -26 6 -46 13 -46 17 0 8 60 29
75 26 6 -2 11 -14 13 -28z m100 -25 c28 -19 52 -35 52 -38 0 -8 -115 29 -122
39 -13 19 -9 48 5 40 6 -4 36 -23 65 -41z m-1632 -10 c-3 -3 -13 -2 -23 1 -17
7 -17 8 2 22 18 13 20 13 23 -1 2 -9 1 -19 -2 -22z m-3213 -20 c-26 -20 -33
-16 -33 17 l0 31 24 -18 c23 -16 23 -19 9 -30z m87 11 c0 -10 -21 -24 -35 -24
-1 0 -5 13 -7 29 -4 27 -3 28 19 18 13 -5 23 -16 23 -23z m4177 0 c-2 -2 -12
-1 -22 2 -17 7 -17 8 1 21 17 12 19 12 22 -2 2 -9 2 -19 -1 -21z m73 16 c0
-11 -4 -20 -9 -20 -14 0 -23 18 -16 30 10 17 25 11 25 -10z m-1044 -40 c0 -34
-4 -36 -31 -17 -17 13 -17 15 6 30 13 10 24 17 24 17 1 0 1 -13 1 -30z m958
14 c13 -5 14 -9 5 -20 -16 -19 -24 -17 -26 6 -2 22 -1 23 21 14z m-1688 -41
c-11 -11 -19 6 -11 24 8 17 8 17 12 0 3 -10 2 -21 -1 -24z m654 27 c0 -5 -9
-14 -19 -20 -18 -9 -21 -2 -12 28 3 7 31 0 31 -8z m1120 -5 c0 -2 -7 -5 -15
-9 -9 -3 -15 0 -15 9 0 9 6 12 15 9 8 -4 15 -7 15 -9z m-4320 -26 c0 -26 -3
-29 -20 -24 -26 8 -26 -2 1 -24 l21 -17 -26 -12 -26 -12 1 51 c2 33 7 53 18
59 26 15 31 12 31 -21z m78 1 c3 -35 -8 -38 -33 -10 -17 19 -17 20 6 29 13 5
24 10 24 10 1 1 2 -12 3 -29z m3122 -14 c0 -18 -17 -29 -30 -21 -8 5 -7 11 1
21 15 18 29 18 29 0z m1050 4 c0 -5 -8 -10 -17 -10 -15 0 -16 2 -3 10 19 12
20 12 20 0z m70 1 c0 -12 -20 -25 -27 -18 -7 7 6 27 18 27 5 0 9 -4 9 -9z
m-1050 -11 c0 -5 -7 -10 -15 -10 -8 0 -15 5 -15 10 0 6 7 10 15 10 8 0 15 -4
15 -10z m-3206 -25 c20 -15 20 -15 0 -30 -28 -21 -34 -18 -34 15 0 33 6 36 34
15z m2483 -32 c-3 -10 -5 -2 -5 17 0 19 2 27 5 18 2 -10 2 -26 0 -35z m729 1
c1 -16 -3 -20 -17 -17 -11 3 -19 14 -19 25 0 27 35 19 36 -8z m-76 6 c0 -5 -8
-14 -18 -19 -14 -7 -18 -6 -18 10 0 12 7 19 18 19 10 0 18 -4 18 -10z m-3120
-45 l0 -36 -25 18 -24 18 20 18 c28 23 29 22 29 -18z m-80 -5 c0 -28 -1 -29
-25 -18 -27 12 -33 33 -12 41 28 12 37 6 37 -23z m3560 21 c0 -10 -39 -59 -40
-49 0 17 20 58 30 58 5 0 10 -4 10 -9z m-360 -14 c0 -19 -10 -27 -26 -20 -11
4 -12 9 -3 19 15 18 29 18 29 1z m70 -7 c0 -5 -7 -10 -15 -10 -8 0 -15 5 -15
10 0 6 7 10 15 10 8 0 15 -4 15 -10z m-3286 -67 c-27 -20 -34 -16 -34 17 l0
30 26 -17 c25 -16 25 -17 8 -30z m85 23 c10 -12 8 -17 -8 -25 -28 -15 -31 -14
-31 14 0 28 21 33 39 11z m3126 3 c10 -15 -1 -23 -20 -15 -9 3 -13 10 -10 16
8 13 22 13 30 -1z m80 -15 c1 -16 -3 -20 -17 -16 -23 6 -25 45 -1 40 9 -2 17
-12 18 -24z m-3275 -54 c0 -34 -6 -36 -35 -14 -20 15 -20 15 -1 30 29 21 36
18 36 -16z m80 0 c0 -27 -2 -30 -19 -20 -29 15 -34 28 -14 39 28 16 33 13 33
-19z m3120 15 c0 -8 -6 -15 -14 -15 -20 0 -29 17 -14 23 22 9 28 7 28 -8z m67
-11 c-9 -9 -28 6 -21 18 4 6 10 6 17 -1 6 -6 8 -13 4 -17z m-2102 -83 l-7 -81
-199 0 -199 0 0 23 c0 35 -19 47 -79 48 -52 1 -54 2 -21 9 19 5 107 16 195 26
88 9 163 21 166 25 5 9 140 38 148 33 2 -2 0 -39 -4 -83z m-1187 1 l-23 -13
23 4 c12 3 22 1 22 -4 0 -5 -9 -9 -19 -9 -11 0 -21 -6 -23 -12 -3 -7 -6 12 -7
42 l-2 54 26 -24 26 -24 -23 -14z m3222 49 c0 -14 -18 -23 -30 -16 -6 4 -8 11
-5 16 8 12 35 12 35 0z m73 -6 c1 -5 -6 -11 -15 -13 -11 -2 -18 3 -18 13 0 17
30 18 33 0z m-3207 -10 c16 -13 17 -16 4 -25 -25 -17 -40 -11 -40 15 0 29 8
31 36 10z m2188 -93 c3 -37 6 -86 6 -109 l0 -43 -50 0 -50 0 0 113 0 112 44
-3 43 -4 7 -66z m645 -9 c0 -18 -3 -33 -9 -33 -6 0 -9 27 -9 63 1 49 3 56 9
32 4 -16 8 -45 9 -62z m301 62 c0 -8 -6 -15 -14 -15 -17 0 -28 14 -19 24 12
12 33 6 33 -9z m61 2 c-1 -12 -15 -9 -19 4 -3 6 1 10 8 8 6 -3 11 -8 11 -12z
m1 -59 c-15 -15 -26 -4 -18 18 5 13 9 15 18 6 9 -9 9 -15 0 -24z m1445 -5
l173 -38 0 -62 0 -63 -185 0 -185 0 0 100 c0 72 3 100 12 100 7 0 90 -17 185
-37z m-4630 5 c-3 -8 -6 -5 -6 6 -1 11 2 17 5 13 3 -3 4 -12 1 -19z m55 -19
c1 -19 6 -37 12 -41 8 -5 7 -8 -1 -8 -7 0 -13 -9 -13 -21 0 -14 5 -19 14 -16
8 3 16 -2 19 -14 4 -15 2 -19 -9 -15 -15 6 -18 -3 -8 -28 3 -9 11 -13 18 -9 6
3 6 1 -1 -8 -7 -7 -13 -26 -13 -41 0 -18 -5 -28 -14 -28 -16 0 -24 91 -18 209
3 65 13 79 14 20z m588 26 c0 -11 -12 -15 -45 -15 -33 0 -45 4 -45 15 0 11 12
15 45 15 33 0 45 -4 45 -15z m2478 4 c-2 -6 -8 -10 -13 -10 -5 0 -11 4 -13 10
-2 6 4 11 13 11 9 0 15 -5 13 -11z m-3241 -56 c-3 -10 -5 -2 -5 17 0 19 2 27
5 18 2 -10 2 -26 0 -35z m220 15 c-3 -7 -5 -2 -5 12 0 14 2 19 5 13 2 -7 2
-19 0 -25z m3023 -8 c0 -11 -4 -20 -9 -20 -14 0 -23 18 -16 30 10 17 25 11 25
-10z m2310 -40 l0 -60 -50 0 -50 0 0 60 0 60 50 0 50 0 0 -60z m180 -35 l0
-95 -70 0 -70 0 0 95 0 95 70 0 70 0 0 -95z m-2420 75 c0 -5 -7 -10 -15 -10
-8 0 -15 5 -15 10 0 6 7 10 15 10 8 0 15 -4 15 -10z m-3273 -67 c-3 -10 -5 -2
-5 17 0 19 2 27 5 18 2 -10 2 -26 0 -35z m80 0 c-3 -10 -5 -2 -5 17 0 19 2 27
5 18 2 -10 2 -26 0 -35z m3187 31 c13 -5 14 -9 5 -20 -16 -20 -29 -17 -29 6 0
22 1 23 24 14z m716 -55 c0 -27 -3 -49 -6 -49 -9 0 -134 93 -134 99 0 3 31 5
70 3 l70 -4 0 -49z m-3783 29 c-3 -8 -6 -5 -6 6 -1 11 2 17 5 13 3 -3 4 -12 1
-19z m3003 12 c0 -5 -7 -10 -15 -10 -8 0 -15 5 -15 10 0 6 7 10 15 10 8 0 15
-4 15 -10z m-3243 -72 c-2 -13 -4 -5 -4 17 -1 22 1 32 4 23 2 -10 2 -28 0 -40z
m250 10 c-3 -7 -5 -2 -5 12 0 14 2 19 5 13 2 -7 2 -19 0 -25z m2988 2 c-5 -8
-11 -8 -17 -2 -6 6 -7 16 -3 22 5 8 11 8 17 2 6 -6 7 -16 3 -22z m75 10 c0 -5
-7 -10 -15 -10 -8 0 -15 5 -15 10 0 6 7 10 15 10 8 0 15 -4 15 -10z m-3193
-77 c-3 -10 -5 -2 -5 17 0 19 2 27 5 18 2 -10 2 -26 0 -35z m3123 26 c0 -5 -7
-9 -15 -9 -15 0 -20 12 -9 23 8 8 24 -1 24 -14z m73 14 c9 -9 -13 -34 -24 -27
-14 8 -11 34 4 34 8 0 17 -3 20 -7z m-3276 -40 c-3 -10 -5 -4 -5 12 0 17 2 24
5 18 2 -7 2 -21 0 -30z m3323 -125 c0 -72 -4 -118 -10 -118 -6 0 -10 51 -10
133 0 89 3 127 10 117 5 -8 10 -68 10 -132z m-3133 117 c0 -8 -4 -15 -9 -15
-4 0 -8 7 -8 15 0 8 4 15 8 15 5 0 9 -7 9 -15z m-230 -47 c-2 -13 -4 -5 -4 17
-1 22 1 32 4 23 2 -10 2 -28 0 -40z m3243 37 c0 -8 -6 -15 -14 -15 -20 0 -29
17 -14 23 22 9 28 7 28 -8z m70 -5 c0 -5 -7 -10 -15 -10 -8 0 -15 5 -15 10 0
6 7 10 15 10 8 0 15 -4 15 -10z m2420 -95 l0 -95 -70 0 -70 0 0 95 0 95 70 0
70 0 0 -95z m-2492 53 c-6 -18 -28 -21 -28 -4 0 9 7 16 16 16 9 0 14 -5 12
-12z m75 -3 c1 -5 -6 -11 -15 -13 -11 -2 -18 3 -18 13 0 17 30 18 33 0z m147
-112 l0 -63 -40 0 -40 0 0 96 0 95 40 -33 c38 -32 40 -35 40 -95z m-3343 65
c-2 -13 -4 -5 -4 17 -1 22 1 32 4 23 2 -10 2 -28 0 -40z m91 -53 c7 -55 14
-117 16 -137 2 -37 1 -38 -31 -38 l-33 0 0 141 c0 127 2 140 17 137 14 -2 20
-23 31 -103z m-171 58 c-3 -10 -5 -4 -5 12 0 17 2 24 5 18 2 -7 2 -21 0 -30z
m209 -12 c-4 -5 0 -12 6 -14 8 -3 6 -6 -4 -6 -18 -1 -24 10 -11 22 9 10 15 8
9 -2z m3064 5 c0 -11 -19 -15 -25 -6 -3 5 1 10 9 10 9 0 16 -2 16 -4z m-3313
-53 c-3 -10 -5 -2 -5 17 0 19 2 27 5 18 2 -10 2 -26 0 -35z m3318 -4 c-11 -17
-35 -9 -35 11 0 18 3 19 20 10 11 -6 18 -15 15 -21z m235 -16 c33 -25 60 -48
60 -50 0 -1 -29 -3 -65 -3 l-65 0 0 50 c0 28 2 50 5 50 3 0 32 -21 65 -47z
m-3280 13 c0 -2 -7 -6 -15 -10 -8 -3 -15 -1 -15 4 0 6 7 10 15 10 8 0 15 -2
15 -4z m-153 -53 c-3 -10 -5 -2 -5 17 0 19 2 27 5 18 2 -10 2 -26 0 -35z
m5433 37 c0 -5 -22 -10 -50 -10 -27 0 -50 5 -50 10 0 6 23 10 50 10 28 0 50
-4 50 -10z m-5513 -37 c-3 -10 -5 -4 -5 12 0 17 2 24 5 18 2 -7 2 -21 0 -30z
m3273 17 c0 -5 -7 -10 -16 -10 -8 0 -12 5 -9 10 3 6 10 10 16 10 5 0 9 -4 9
-10z m-3039 -27 c-12 -20 -14 -14 -5 12 4 9 9 14 11 11 3 -2 0 -13 -6 -23z
m-274 -45 c-2 -13 -4 -5 -4 17 -1 22 1 32 4 23 2 -10 2 -28 0 -40z m2333 -76
l0 -119 -65 1 -65 1 0 111 c0 61 3 114 7 117 3 4 33 7 65 7 l58 0 0 -118z
m980 108 c13 -9 13 -11 0 -20 -22 -15 -30 -12 -30 10 0 22 8 25 30 10z m2240
-65 c0 -82 0 -82 -69 -69 -31 6 -31 7 -31 70 0 68 -1 67 68 72 l32 3 0 -76z
m180 -20 l0 -95 -55 0 c-43 0 -55 3 -55 15 0 9 -7 18 -15 21 -11 5 -15 24 -15
80 l0 74 70 0 70 0 0 -95z m-5440 51 c0 -11 -19 -15 -25 -6 -3 5 1 10 9 10 9
0 16 -2 16 -4z m-173 -38 c-3 -8 -6 -5 -6 6 -1 11 2 17 5 13 3 -3 4 -12 1 -19z
m3193 12 c0 -5 -7 -10 -16 -10 -8 0 -12 5 -9 10 3 6 10 10 16 10 5 0 9 -4 9
-10z m0 -40 c13 -9 13 -11 0 -19 -17 -12 -30 -5 -30 15 0 16 9 18 30 4z
m-3313 -47 c-3 -10 -5 -2 -5 17 0 19 2 27 5 18 2 -10 2 -26 0 -35z m242 -38
c6 -36 14 -96 17 -134 l5 -69 -50 -3 c-36 -3 -51 0 -51 9 0 6 7 12 15 12 8 0
15 7 15 15 0 8 -6 15 -14 15 -12 0 -15 22 -18 106 -2 58 -1 108 1 110 2 2 19
4 37 4 32 0 32 -1 43 -65z m3068 29 c-3 -3 -12 -4 -19 -1 -8 3 -5 6 6 6 11 1
17 -2 13 -5z m-3270 -51 c-3 -10 -5 -2 -5 17 0 19 2 27 5 18 2 -10 2 -26 0
-35z m80 0 c-3 -10 -5 -2 -5 17 0 19 2 27 5 18 2 -10 2 -26 0 -35z m-120 -55
c-2 -13 -4 -5 -4 17 -1 22 1 32 4 23 2 -10 2 -28 0 -40z m5733 -43 l0 -95 -39
0 c-69 0 -71 3 -71 95 0 92 -1 92 73 94 l37 1 0 -95z m-5613 -12 c-3 -10 -5
-2 -5 17 0 19 2 27 5 18 2 -10 2 -26 0 -35z m-80 0 c-3 -10 -5 -4 -5 12 0 17
2 24 5 18 2 -7 2 -21 0 -30z m942 -249 c1 -26 -3 -33 -24 -36 -30 -6 -30 -6
-13 112 l12 85 12 -65 c7 -36 13 -79 13 -96z m-998 93 c-11 -11 -11 -2 0 48 1
6 4 -1 6 -14 3 -13 0 -28 -6 -34z m136 -14 c-2 -16 -4 -5 -4 22 0 28 2 40 4
28 2 -13 2 -35 0 -50z m162 28 c0 -14 2 -72 5 -127 6 -115 7 -114 -81 -114
l-43 0 0 43 c0 36 3 43 21 44 30 3 35 11 20 36 -10 15 -10 22 -2 25 6 2 11 12
11 23 0 14 -7 19 -25 19 -22 0 -25 4 -25 39 0 40 0 40 43 43 64 5 77 -1 76
-31z m-242 7 c-3 -8 -6 -5 -6 6 -1 11 2 17 5 13 3 -3 4 -12 1 -19z m40 -35
c-3 -10 -5 -4 -5 12 0 17 2 24 5 18 2 -7 2 -21 0 -30z m-182 -142 c3 -5 1 -12
-5 -16 -5 -3 -10 1 -10 9 0 18 6 21 15 7z m222 -28 c-3 -10 -5 -4 -5 12 0 17
2 24 5 18 2 -7 2 -21 0 -30z m853 1 c0 -2 -9 -4 -21 -4 -11 0 -18 4 -14 10 5
8 35 3 35 -6z"/>
<path d="M308 2893 c7 -3 16 -2 19 1 4 3 -2 6 -13 5 -11 0 -14 -3 -6 -6z"/>
<path d="M4755 2800 c3 -5 8 -10 11 -10 2 0 4 5 4 10 0 6 -5 10 -11 10 -5 0
-7 -4 -4 -10z"/>
<path d="M2960 2819 c0 -5 5 -7 10 -4 6 3 10 8 10 11 0 2 -4 4 -10 4 -5 0 -10
-5 -10 -11z"/>
<path d="M955 3330 c-8 -13 9 -20 24 -11 10 6 9 10 -3 14 -8 3 -18 2 -21 -3z"/>
<path d="M1035 3301 c6 -11 4 -13 -8 -8 -23 9 -21 0 2 -13 15 -7 19 -7 17 5
-1 8 -6 18 -11 22 -4 5 -5 2 0 -6z"/>
<path d="M891 3287 c2 -1 13 -9 24 -17 19 -14 19 -14 6 3 -7 9 -18 17 -24 17
-6 0 -8 -1 -6 -3z"/>
<path d="M965 3260 c6 -10 3 -12 -11 -7 -14 6 -13 2 6 -13 38 -31 69 -46 35
-16 -42 35 -24 32 38 -7 73 -47 77 -49 77 -43 0 2 -28 22 -62 43 -94 59 -92
58 -83 43z"/>
<path d="M1140 3250 c8 -5 20 -10 25 -10 6 0 3 5 -5 10 -8 5 -19 10 -25 10 -5
0 -3 -5 5 -10z"/>
<path d="M1150 3220 c19 -11 40 -19 45 -19 6 0 -6 8 -25 19 -19 11 -39 19 -45
19 -5 0 6 -8 25 -19z"/>
<path d="M1187 3229 c7 -7 15 -10 18 -7 3 3 -2 9 -12 12 -14 6 -15 5 -6 -5z"/>
<path d="M1240 3206 c0 -5 129 -66 139 -66 8 1 -63 39 -106 57 -18 7 -33 11
-33 9z"/>
<path d="M1210 3195 c0 -7 61 -37 66 -33 2 3 -12 12 -31 21 -19 9 -35 15 -35
12z"/>
<path d="M1042 3186 c3 -4 37 -27 75 -52 38 -24 54 -32 36 -16 -30 25 -127 84
-111 68z"/>
<path d="M1120 3166 c0 -3 9 -10 20 -16 11 -6 20 -8 20 -6 0 3 -9 10 -20 16
-11 6 -20 8 -20 6z"/>
<path d="M3475 3103 c-60 -30 -111 -59 -113 -64 -2 -4 -11 -5 -20 -2 -13 3
-14 2 -4 -4 9 -7 50 10 133 53 66 34 123 65 126 68 16 16 -21 0 -122 -51z"/>
<path d="M1170 3136 c0 -3 9 -10 20 -16 11 -6 20 -8 20 -6 0 3 -9 10 -20 16
-11 6 -20 8 -20 6z"/>
<path d="M1350 3125 c0 -7 61 -37 66 -33 2 3 -12 12 -31 21 -19 9 -35 15 -35
12z"/>
<path d="M1440 3110 c19 -11 40 -19 45 -19 6 0 -6 8 -25 19 -19 11 -39 19 -45
19 -5 0 6 -8 25 -19z"/>
<path d="M1232 3094 c10 -10 20 -16 22 -13 3 3 -5 11 -17 18 -21 13 -21 12 -5
-5z"/>
<path d="M3535 3091 c-3 -5 -2 -12 3 -15 5 -3 9 1 9 9 0 17 -3 19 -12 6z"/>
<path d="M1500 3086 c0 -2 7 -7 16 -10 8 -3 12 -2 9 4 -6 10 -25 14 -25 6z"/>
<path d="M1451 3076 c2 -2 15 -9 29 -15 24 -11 24 -11 6 3 -16 13 -49 24 -35
12z"/>
<path d="M3250 2996 c0 -2 7 -7 16 -10 8 -3 12 -2 9 4 -6 10 -25 14 -25 6z"/>
<path d="M3220 2960 c-19 -11 -31 -19 -27 -20 11 0 67 29 67 35 0 7 -1 7 -40
-15z"/>
<path d="M3340 2959 c-22 -18 -22 -19 -3 -10 12 6 25 16 28 21 9 15 3 12 -25
-11z"/>
<path d="M3329 2919 l-24 -20 28 17 c15 9 27 18 27 20 0 8 -8 4 -31 -17z"/>
<path d="M3264 2904 c-18 -14 -18 -15 4 -4 12 6 22 13 22 15 0 8 -5 6 -26 -11z"/>
<path d="M3040 2895 c-14 -8 -20 -14 -15 -14 6 0 21 6 35 14 14 8 21 14 15 14
-5 0 -21 -6 -35 -14z"/>
<path d="M3104 2894 c-18 -14 -18 -15 4 -4 12 6 22 13 22 15 0 8 -5 6 -26 -11z"/>
<path d="M3279 2883 c-13 -16 -12 -17 4 -4 16 13 21 21 13 21 -2 0 -10 -8 -17
-17z"/>
<path d="M4812 2689 c2 -7 10 -15 17 -17 8 -3 12 1 9 9 -2 7 -10 15 -17 17 -8
3 -12 -1 -9 -9z"/>
</g>
</svg>
