<?xml version="1.0" standalone="no"?>
<!DOCTYPE svg PUBLIC "-//W3C//DTD SVG 20010904//EN"
 "http://www.w3.org/TR/2001/REC-SVG-20010904/DTD/svg10.dtd">
<svg version="1.0" xmlns="http://www.w3.org/2000/svg"
 width="700.000000pt" height="298.000000pt" viewBox="0 0 700.000000 298.000000"
 preserveAspectRatio="xMidYMid meet">

<g transform="translate(0.000000,298.000000) scale(0.100000,-0.100000)"
fill="#000000" stroke="none">
<path d="M0 1490 l0 -1490 3500 0 3500 0 0 1490 0 1490 -3075 0 c-1691 0
-3075 -2 -3075 -4 0 -3 61 -65 136 -138 l136 -133 -276 -273 c-151 -149 -279
-272 -283 -272 -16 0 -94 86 -86 95 5 4 3 5 -3 2 -14 -8 -47 26 -37 38 5 4 3
5 -3 2 -6 -3 -60 44 -120 106 -60 61 -99 103 -87 93 17 -14 25 -15 43 -6 15 8
20 8 16 1 -5 -7 -1 -8 10 -4 14 5 16 3 10 -13 -5 -13 -4 -16 3 -8 12 11 -7 64
-21 64 -5 0 -8 29 -8 65 0 61 -1 65 -22 65 -20 0 -17 6 25 46 l47 45 0 75 c0
41 -4 74 -10 74 -5 0 -7 6 -4 13 3 8 -4 13 -17 14 -14 1 -19 -3 -15 -12 3 -9
0 -12 -10 -8 -13 5 -13 8 1 23 8 9 13 25 9 34 -5 14 -25 16 -145 16 l-139 0 0
-1490z m230 1427 c0 -2 -12 -14 -27 -28 l-28 -24 24 28 c23 25 31 32 31 24z
m-17 -62 c-3 -9 -8 -14 -10 -11 -3 3 -2 9 2 15 9 16 15 13 8 -4z m103 -32
c-10 -10 -19 5 -10 18 6 11 8 11 12 0 2 -7 1 -15 -2 -18z m-161 -253 c10 -11
16 -20 13 -20 -3 0 -13 9 -23 20 -10 11 -16 20 -13 20 3 0 13 -9 23 -20z m78
-7 c-4 -10 -9 -10 -18 -3 -6 5 -16 6 -20 2 -5 -4 -6 -2 -2 3 8 16 46 13 40 -2z
m-39 -29 c3 -8 2 -12 -4 -9 -6 3 -10 10 -10 16 0 14 7 11 14 -7z m3311 -61
c-4 -21 -10 -52 -15 -70 -4 -17 -5 -34 -2 -37 3 -3 45 -6 94 -6 96 0 149 -15
167 -48 17 -31 13 -79 -15 -227 l-26 -135 -59 0 c-71 0 -69 -10 -34 159 18 88
22 128 15 141 -12 22 -57 33 -120 28 l-44 -3 -31 -160 -30 -160 -63 -3 c-57
-3 -63 -1 -58 15 2 10 28 136 57 281 l52 262 59 0 59 0 -6 -37z m-275 -135
c57 -39 75 -72 73 -136 -1 -70 -23 -126 -66 -170 -55 -58 -100 -75 -214 -80
l-103 -5 -6 -36 c-3 -20 -10 -53 -15 -73 l-10 -38 -59 0 c-33 0 -60 4 -60 8 0
8 95 489 105 530 5 22 8 22 164 22 147 0 160 -2 191 -22z m961 1 c122 -62 91
-273 -50 -352 -47 -27 -65 -31 -156 -35 l-103 -5 -14 -71 -13 -71 -63 -3 c-61
-3 -62 -2 -57 20 5 23 105 531 105 535 0 2 70 3 155 3 138 0 161 -2 196 -21z
m-907 -656 c3 -10 8 -36 11 -58 14 -91 17 -92 32 -11 7 44 15 82 18 84 12 12
24 -16 36 -85 l13 -78 14 83 c8 45 19 82 24 82 11 0 10 -10 -9 -117 -21 -117
-37 -122 -54 -17 -14 82 -19 80 -39 -18 -18 -89 -29 -79 -50 42 -6 36 -14 75
-17 88 -6 26 13 30 21 5z m306 -17 c0 -29 3 -33 20 -29 33 9 50 -15 50 -67 0
-55 -19 -78 -65 -77 -27 0 -30 4 -29 26 1 14 3 61 3 104 1 44 5 77 11 77 6 0
10 -15 10 -34z m559 15 c47 -47 33 -166 -22 -184 -51 -17 -57 -7 -57 96 0 52
3 97 7 100 13 14 53 7 72 -12z m401 -86 c0 -63 -4 -105 -10 -105 -6 0 -10 42
-10 105 0 63 4 105 10 105 6 0 10 -42 10 -105z m-750 87 c0 -13 -12 -22 -22
-16 -10 6 -1 24 13 24 5 0 9 -4 9 -8z m60 -22 c0 -12 7 -20 18 -20 16 -1 16
-1 0 -11 -24 -13 -26 -107 -3 -115 23 -9 18 -26 -7 -22 -21 3 -23 10 -26 63
-2 32 -8 65 -14 72 -7 9 -7 13 1 13 6 0 11 9 11 20 0 11 5 20 10 20 6 0 10 -9
10 -20z m1428 -20 c16 -1 15 -2 0 -11 -25 -14 -25 -104 -1 -118 10 -5 14 -13
10 -17 -4 -5 -16 -3 -25 2 -12 8 -18 28 -20 70 -2 32 -9 62 -15 66 -8 5 -9 8
-1 8 7 0 15 10 19 23 l8 22 4 -22 c2 -13 12 -23 21 -23z m-1760 -12 c7 -7 12
-25 12 -40 0 -25 -3 -28 -35 -28 -31 0 -34 -2 -26 -22 5 -14 19 -25 37 -28 20
-4 25 -8 16 -14 -41 -25 -89 29 -78 88 11 52 46 72 74 44z m217 2 c3 -5 -3
-10 -14 -10 -33 0 -36 -22 -7 -45 44 -35 19 -102 -30 -80 -17 8 -16 9 9 13 32
4 37 36 8 52 -25 13 -36 47 -21 65 14 17 46 20 55 5z m55 -65 c0 -98 -17 -97
-22 0 -2 55 0 75 10 75 8 0 12 -22 12 -75z m178 63 c7 -7 12 -25 12 -40 0 -25
-3 -28 -35 -28 -31 0 -34 -2 -26 -22 5 -14 19 -25 37 -28 20 -4 25 -8 16 -14
-22 -13 -62 3 -72 29 -10 27 -3 82 13 103 12 15 39 16 55 0z m300 -13 c20 -44
15 -55 -24 -55 -31 0 -35 -3 -32 -22 2 -17 11 -24 31 -26 32 -4 37 -22 5 -22
-35 0 -58 29 -58 72 0 22 5 48 10 59 15 28 54 24 68 -6z m63 -32 l12 -58 13
53 c12 55 20 70 29 60 9 -8 -30 -141 -42 -145 -6 -2 -18 27 -27 66 -19 82 -19
81 -7 81 5 0 15 -26 22 -57z m147 45 c7 -7 12 -25 12 -40 0 -25 -3 -28 -35
-28 -38 0 -40 -2 -25 -31 7 -11 21 -19 37 -19 20 0 24 -3 16 -11 -19 -19 -63
-1 -74 29 -11 29 -5 77 12 99 14 16 41 17 57 1z m172 -7 c15 -30 12 -97 -6
-115 -36 -36 -74 -6 -74 59 0 47 19 75 50 75 11 0 24 -9 30 -19z m130 -1 c26
-49 -2 -137 -41 -127 -14 4 -19 -2 -21 -27 -2 -17 -7 -31 -13 -31 -6 0 -11 42
-13 100 l-3 101 41 1 c30 2 42 -3 50 -17z m115 10 c4 -6 14 -5 25 2 33 21 50
-5 50 -78 0 -82 -18 -84 -22 -2 -2 50 -7 63 -20 66 -14 3 -17 -7 -20 -59 -2
-39 -8 -64 -15 -67 -10 -3 -13 14 -13 62 0 59 -2 66 -20 66 -18 0 -20 -7 -20
-66 0 -47 -3 -65 -12 -62 -8 3 -13 29 -14 74 l-1 70 38 1 c21 1 41 -2 44 -7z
m185 -9 c5 -11 10 -29 10 -40 0 -17 -6 -21 -35 -21 -22 0 -35 -5 -35 -13 0
-19 21 -37 42 -37 10 0 18 -4 18 -10 0 -21 -50 -10 -66 15 -18 28 -14 85 7
111 16 20 47 17 59 -5z m122 -18 c11 -43 6 -105 -10 -111 -9 -3 -12 14 -12 62
0 59 -2 66 -20 66 -17 0 -20 -7 -21 -50 -2 -70 -3 -73 -16 -77 -10 -4 -13 15
-13 70 l0 74 42 -1 c38 -1 42 -4 50 -33z m-3673 -204 c26 -26 31 -38 31 -80
l0 -49 -60 0 c-56 0 -60 2 -59 23 1 16 2 18 6 5 3 -14 15 -18 54 -18 l49 0 0
45 c0 41 -2 45 -24 45 -19 0 -25 6 -28 30 -3 17 -3 30 -2 30 1 0 16 -14 33
-31z m-82 -36 c-3 -10 -5 -4 -5 12 0 17 2 24 5 18 2 -7 2 -21 0 -30z m717
-172 c11 -13 37 -31 58 -41 36 -16 38 -18 16 -24 -13 -3 -60 -6 -105 -6 l-83
0 0 64 c0 97 4 101 53 63 23 -18 50 -43 61 -56z m-1258 53 c-4 -9 -9 -15 -11
-12 -3 3 -3 13 1 22 4 9 9 15 11 12 3 -3 3 -13 -1 -22z m579 -24 c-5 -16 -2
-20 19 -20 44 0 56 -10 57 -49 l1 -36 11 43 c10 42 10 42 56 42 72 0 114 -44
81 -83 -6 -7 -16 -20 -23 -30 -8 -11 -26 -19 -46 -19 -25 -1 -35 -7 -42 -25
-5 -14 -17 -23 -30 -23 -17 0 -20 5 -17 25 5 22 2 25 -24 25 -23 0 -28 4 -25
18 19 67 18 72 -7 72 -21 0 -25 -6 -33 -47 -7 -40 -12 -47 -28 -45 -11 2 -21
8 -23 13 -2 5 -11 5 -21 0 -9 -5 -32 -11 -51 -13 -27 -3 -36 -9 -38 -26 -2
-16 -10 -22 -28 -22 -27 0 -27 0 0 124 11 51 11 51 54 54 24 2 56 -3 72 -12
29 -14 29 -14 36 20 5 28 11 34 31 34 20 0 23 -4 18 -20z m-455 -275 l0 -225
-88 0 c-85 0 -89 -1 -100 -25 -7 -14 -12 -33 -12 -41 0 -13 3 -13 22 0 30 21
41 20 29 -2 -9 -18 -6 -19 42 -15 154 11 148 11 143 -6 -2 -9 -12 -52 -22 -96
-14 -65 -19 -75 -25 -55 -4 14 -7 20 -8 14 -1 -12 -26 -11 -83 2 -18 4 -40 8
-48 9 -46 7 -80 19 -80 27 0 6 -7 8 -15 4 -19 -7 -120 -82 -160 -118 -16 -16
-35 -28 -41 -28 -7 0 -47 32 -89 70 -42 39 -82 70 -87 70 -6 0 -5 -6 2 -15 7
-9 11 -18 8 -21 -9 -8 -118 136 -118 156 0 24 28 18 111 -21 84 -40 90 -45 86
-69 -6 -28 13 -57 55 -83 34 -21 48 -22 48 -2 0 13 12 17 36 14 10 -1 64 64
64 78 0 8 4 11 10 8 10 -6 6 24 -16 110 -9 35 -9 54 -2 62 7 9 7 13 -1 13 -12
0 -14 -8 -15 -54 -1 -16 -7 -30 -14 -32 -7 -1 -8 0 -2 3 5 2 10 12 10 21 0 15
-2 15 -11 2 -9 -12 -10 -12 -5 3 3 11 9 30 12 44 6 21 10 23 33 18 29 -8 151
-16 151 -10 0 2 -38 15 -85 30 l-85 26 1 92 c0 51 4 101 9 112 5 11 9 16 9 10
1 -5 9 2 19 17 10 15 35 45 56 68 31 33 36 44 25 51 -9 5 34 9 109 9 l122 0 0
-225z m1095 7 c-9 -9 -35 8 -35 24 0 16 2 16 20 -1 11 -10 18 -20 15 -23z
m391 -50 c-3 -5 1 -9 8 -9 8 0 12 8 9 21 -4 21 -4 21 8 1 6 -11 23 -33 38 -49
24 -27 24 -28 4 -17 -13 6 -23 16 -23 22 0 6 -5 7 -11 3 -8 -4 -7 -9 2 -15 7
-4 10 -11 6 -15 -3 -4 -24 8 -46 27 -27 24 -40 42 -40 62 l-1 28 26 -26 c14
-14 23 -29 20 -33z m-436 -18 c0 -2 -7 -4 -15 -4 -8 0 -15 4 -15 10 0 5 7 7
15 4 8 -4 15 -8 15 -10z m404 -10 c3 -8 2 -12 -4 -9 -6 3 -10 10 -10 16 0 14
7 11 14 -7z m-1124 -44 l0 -50 40 4 c22 2 76 1 120 -3 l80 -7 0 52 0 53 45 -2
45 -1 -1 -96 c0 -52 -3 -88 -7 -80 -4 8 -15 16 -24 16 -10 1 -15 -2 -12 -7 3
-5 -7 -9 -22 -9 -22 0 -24 3 -15 14 19 23 -1 27 -112 25 -127 -2 -148 -6 -140
-26 5 -13 0 -15 -28 -11 -38 6 -85 -6 -59 -15 8 -3 29 -8 45 -12 100 -21 96
-23 -47 -24 l-148 -1 0 -127 c0 -151 -9 -233 -24 -233 -12 0 -6 196 9 314 6
44 5 57 -3 52 -9 -5 -12 24 -12 108 l0 116 135 0 135 0 0 -50z m720 15 c0 -9
9 -15 25 -15 13 0 29 -8 34 -17 10 -17 10 -17 11 0 0 13 9 17 38 17 39 0 62
-14 62 -37 0 -22 -38 -53 -65 -53 -16 0 -25 -6 -25 -15 0 -8 -7 -15 -15 -15
-8 0 -15 7 -15 15 0 8 -7 15 -16 15 -12 0 -15 8 -12 32 2 25 -1 34 -14 36 -12
2 -18 -3 -18 -16 0 -11 -3 -27 -6 -36 -7 -19 -34 -22 -34 -4 0 9 -3 9 -12 0
-7 -7 -25 -12 -40 -12 -18 0 -28 -5 -28 -15 0 -8 -7 -15 -16 -15 -12 0 -15 6
-11 23 3 12 9 39 12 60 7 35 9 37 46 37 21 0 41 -4 44 -10 11 -18 25 -10 25
15 0 16 6 25 15 25 8 0 15 -7 15 -15z m485 -32 c44 0 91 -6 105 -11 25 -11 25
-11 -7 -11 -49 -1 -40 -21 9 -21 51 0 41 -17 -18 -30 -38 -9 -60 2 -48 22 3 4
-16 8 -43 9 -36 0 -43 3 -28 9 16 7 13 9 -17 9 -33 1 -37 -2 -41 -26 -2 -16
-5 -7 -5 22 -1 28 2 45 6 40 4 -6 43 -11 87 -12z m-2075 -81 c0 -20 8 -32 28
-44 15 -9 36 -26 46 -37 18 -20 18 -21 1 -21 -9 0 -33 13 -51 30 -30 26 -37
28 -55 17 -17 -10 -22 -9 -35 7 -19 26 -18 42 2 25 14 -11 18 -10 30 6 17 23
18 37 2 54 -11 11 -9 11 10 2 15 -8 22 -21 22 -39z m2270 28 c18 -12 2 -12
-25 0 -13 6 -15 9 -5 9 8 0 22 -4 30 -9z m-185 -10 c-28 -12 -37 -12 -30 0 3
6 16 10 28 9 21 0 21 -1 2 -9z m-1948 -52 c-3 -8 -6 -5 -6 6 -1 11 2 17 5 13
3 -3 4 -12 1 -19z m-54 -8 c-4 -16 -8 -18 -19 -9 -16 13 -19 23 -5 14 5 -3 12
-1 16 5 10 16 14 12 8 -10z m2203 -7 c-4 -5 -42 -8 -84 -9 -58 0 -76 -3 -74
-13 2 -10 -5 -12 -25 -7 -15 4 -36 7 -45 7 -10 0 -18 7 -18 15 0 11 23 14 127
14 69 0 123 -3 119 -7z m-1086 -28 c0 -18 -4 -23 -16 -18 -13 5 -13 7 -2 14 7
5 9 9 5 9 -5 0 -5 5 -2 10 10 16 15 12 15 -15z m-177 -2 c-7 -2 -21 -2 -30 0
-10 3 -4 5 12 5 17 0 24 -2 18 -5z m57 -3 c0 -5 -7 -7 -15 -4 -8 4 -15 8 -15
10 0 2 7 4 15 4 8 0 15 -4 15 -10z m51 -22 c-3 -21 -6 -26 -9 -15 -3 17 3 47
11 47 2 0 1 -15 -2 -32z m1119 12 c11 -8 3 -10 -28 -7 -23 2 -45 7 -49 11 -11
10 61 7 77 -4z m-952 -27 c-10 -2 -26 -2 -35 0 -10 3 -2 5 17 5 19 0 27 -2 18
-5z m-478 -118 c0 -3 -12 -10 -26 -15 -20 -8 -25 -15 -21 -31 4 -16 3 -18 -9
-8 -21 17 -18 25 19 43 36 18 37 18 37 11z"/>
<path d="M2966 2188 c-10 -51 -20 -105 -23 -120 l-5 -28 60 0 c105 0 153 31
172 111 23 95 -10 129 -123 129 l-63 0 -18 -92z"/>
<path d="M3946 2269 c-3 -8 -12 -52 -21 -99 -9 -47 -18 -95 -21 -107 -4 -22
-1 -23 58 -23 110 0 168 47 176 142 6 74 -14 91 -114 96 -56 3 -75 1 -78 -9z"/>
<path d="M3597 1613 c-4 -3 -7 -26 -7 -50 0 -31 5 -45 16 -50 20 -7 34 13 34
49 0 48 -21 73 -43 51z"/>
<path d="M4098 1594 c3 -73 6 -85 20 -82 23 4 43 65 36 108 -7 41 -20 60 -43
60 -14 0 -16 -12 -13 -86z"/>
<path d="M3477 1600 c-4 -16 0 -20 20 -20 18 0 24 5 21 17 -5 26 -34 28 -41 3z"/>
<path d="M3943 1617 c-24 -31 -24 -37 1 -37 19 0 26 5 26 19 0 25 -15 35 -27
18z"/>
<path d="M4232 1618 c-20 -20 -14 -38 13 -38 28 0 31 8 12 33 -10 14 -15 15
-25 5z"/>
<path d="M4443 1612 c-3 -9 -8 -20 -10 -24 -2 -5 7 -8 21 -8 19 0 26 5 26 19
0 25 -29 36 -37 13z"/>
<path d="M4604 1607 c-3 -8 -4 -32 -2 -53 2 -31 7 -39 23 -39 17 0 20 7 20 50
0 39 -4 50 -18 53 -9 2 -20 -3 -23 -11z"/>
<path d="M4737 1613 c-4 -3 -7 -26 -7 -50 0 -31 5 -45 16 -50 20 -7 34 13 34
49 0 48 -21 73 -43 51z"/>
<path d="M5041 1611 c-15 -28 -14 -31 14 -31 28 0 33 21 11 39 -12 10 -17 8
-25 -8z"/>
<path d="M1330 1130 c0 -23 4 -30 20 -30 21 0 45 34 35 50 -3 6 -17 10 -31 10
-20 0 -24 -5 -24 -30z"/>
<path d="M1626 1138 c-9 -34 -8 -38 12 -38 23 0 42 19 42 42 0 28 -46 24 -54
-4z"/>
<path d="M900 1020 c0 -6 6 -10 13 -10 8 0 20 -11 27 -25 7 -14 15 -23 17 -21
3 2 -3 16 -12 29 -17 27 -45 43 -45 27z"/>
<path d="M780 955 c0 -7 16 -15 37 -18 27 -5 40 -2 50 11 8 9 12 12 9 6 -4 -8
7 -11 34 -11 32 1 37 3 28 14 -9 11 -13 12 -20 1 -5 -8 -11 -9 -15 -3 -12 15
-33 17 -48 5 -8 -7 -16 -7 -19 -2 -8 14 -56 11 -56 -3z"/>
<path d="M359 591 c14 -25 28 -34 28 -17 0 7 -9 19 -19 25 -17 11 -18 10 -9
-8z"/>
<path d="M1977 788 c-8 -28 -1 -35 21 -22 22 14 22 38 1 42 -10 2 -19 -6 -22
-20z"/>
<path d="M2187 803 c-12 -12 -7 -43 7 -43 18 0 39 27 31 40 -7 11 -28 13 -38
3z"/>
<path d="M2141 764 c0 -11 3 -14 6 -6 3 7 2 16 -1 19 -3 4 -6 -2 -5 -13z"/>
<path d="M297 2974 c7 -3 9 -12 6 -20 -3 -8 0 -14 6 -14 6 0 11 9 11 20 0 13
-6 20 -17 19 -10 0 -13 -3 -6 -5z"/>
<path d="M260 2478 c0 -12 64 -78 74 -78 6 0 3 5 -6 11 -11 6 -15 16 -11 27 3
9 2 14 -2 9 -5 -4 -19 3 -32 15 -13 12 -23 19 -23 16z"/>
<path d="M350 2380 c0 -5 5 -10 11 -10 5 0 7 5 4 10 -3 6 -8 10 -11 10 -2 0
-4 -4 -4 -10z"/>
</g>
</svg>
