<?xml version="1.0" standalone="no"?>
<!DOCTYPE svg PUBLIC "-//W3C//DTD SVG 20010904//EN"
 "http://www.w3.org/TR/2001/REC-SVG-20010904/DTD/svg10.dtd">
<svg version="1.0" xmlns="http://www.w3.org/2000/svg"
 width="1366.000000pt" height="427.000000pt" viewBox="0 0 1366.000000 427.000000"
 preserveAspectRatio="xMidYMid meet">

<g transform="translate(0.000000,427.000000) scale(0.100000,-0.100000)"
fill="#000000" stroke="none">
<path d="M0 2130 l0 -2130 6830 0 6830 0 0 2130 0 2130 -6830 0 -6830 0 0
-2130z m6050 724 c-82 -8 -340 -8 -340 -1 0 4 84 6 188 5 103 -1 171 -3 152
-4z m2000 0 c-82 -8 -340 -8 -340 -1 0 4 84 6 188 5 103 -1 171 -3 152 -4z
m-1045 -15 c-22 -5 -52 -11 -67 -13 -15 -3 -35 -9 -45 -14 -10 -5 -24 -7 -32
-4 -9 3 -11 0 -7 -7 4 -6 4 -11 -1 -10 -17 4 -43 -14 -36 -25 3 -6 3 -8 -2 -4
-4 4 -17 3 -29 -3 -14 -7 -11 -1 9 16 56 48 125 74 190 73 59 0 59 0 20 -9z
m1165 -563 c0 -3 -4 -8 -10 -11 -5 -3 -10 -1 -10 4 0 6 5 11 10 11 6 0 10 -2
10 -4z m-2043 -22 c-3 -3 -12 -4 -19 -1 -8 3 -5 6 6 6 11 1 17 -2 13 -5z
m2000 0 c-3 -3 -12 -4 -19 -1 -8 3 -5 6 6 6 11 1 17 -2 13 -5z m-2054 -11 c-7
-2 -19 -2 -25 0 -7 3 -2 5 12 5 14 0 19 -2 13 -5z m2000 0 c-7 -2 -19 -2 -25
0 -7 3 -2 5 12 5 14 0 19 -2 13 -5z m-2408 -13 c-28 -12 -45 -12 -45 0 0 6 15
10 33 9 27 0 29 -2 12 -9z m2000 0 c-28 -12 -47 -12 -40 0 3 6 18 10 33 9 24
0 25 -1 7 -9z m-5785 -339 c0 -12 -20 -25 -27 -18 -7 7 6 27 18 27 5 0 9 -4 9
-9z m480 -6 c-7 -8 -17 -15 -22 -15 -6 0 -5 7 2 15 7 8 17 15 22 15 6 0 5 -7
-2 -15z m280 -10 c7 -9 10 -18 7 -22 -8 -7 -37 15 -37 28 0 14 16 11 30 -6z
m375 -5 c10 -11 13 -20 7 -20 -6 0 -14 5 -17 10 -4 7 -12 7 -25 0 -29 -16 -35
-12 -15 10 10 11 21 20 25 20 4 0 15 -9 25 -20z m595 0 c8 -15 8 -20 -3 -20
-14 0 -37 19 -37 32 0 16 30 7 40 -12z m-1782 -3 c9 -10 3 -13 -26 -14 -34 -1
-35 0 -17 13 23 17 30 17 43 1z m486 0 c16 -12 14 -13 -18 -13 -28 0 -33 3
-24 13 6 7 14 13 17 13 4 0 15 -6 25 -13z m-824 -42 c0 -9 -9 -15 -25 -15 -24
0 -25 -2 -25 -70 0 -56 -3 -70 -15 -70 -12 0 -15 14 -15 70 0 68 -1 70 -25 70
-16 0 -25 6 -25 15 0 12 14 15 65 15 51 0 65 -3 65 -15z m60 -21 c0 -34 1 -35
33 -32 28 3 32 7 35 36 2 20 9 32 18 32 11 0 14 -18 14 -85 0 -69 -3 -85 -15
-85 -10 0 -15 11 -15 35 0 33 -2 35 -35 35 -33 0 -35 -2 -35 -35 0 -28 -4 -35
-20 -35 -18 0 -20 7 -20 85 0 78 2 85 20 85 16 0 20 -7 20 -36z m170 -49 c0
-78 -2 -85 -20 -85 -18 0 -20 7 -20 85 0 78 2 85 20 85 18 0 20 -7 20 -85z
m140 70 c0 -11 -11 -15 -41 -15 -33 0 -40 -3 -37 -17 2 -12 14 -19 36 -21 42
-4 41 -20 0 -24 -25 -2 -34 -8 -36 -25 -3 -21 1 -23 37 -23 30 0 41 -4 41 -15
0 -12 -13 -15 -55 -15 l-55 0 0 85 0 85 55 0 c42 0 55 -3 55 -15z m150 0 c0
-9 -9 -15 -25 -15 -24 0 -25 -2 -25 -70 0 -56 -3 -70 -15 -70 -12 0 -15 14
-15 70 0 68 -1 70 -25 70 -16 0 -25 6 -25 15 0 12 14 15 65 15 51 0 65 -3 65
-15z m110 -22 l0 -38 31 38 c17 20 39 37 50 37 19 0 18 -4 -10 -37 -33 -41
-35 -31 15 -108 16 -24 15 -25 -4 -25 -13 0 -29 14 -43 36 -23 38 -39 33 -39
-13 0 -14 -6 -23 -15 -23 -12 0 -15 16 -15 85 0 69 3 85 15 85 11 0 15 -11 15
-37z m228 25 c-3 -7 -21 -14 -41 -16 -29 -3 -37 -7 -37 -23 0 -15 7 -19 35
-19 19 0 35 -4 35 -10 0 -5 -16 -10 -35 -10 -30 0 -35 -3 -35 -24 0 -21 5 -25
37 -28 62 -5 53 -28 -11 -28 l-56 0 0 85 0 85 56 0 c40 0 55 -4 52 -12z m120
-45 c8 -29 18 -53 22 -53 5 0 14 23 21 51 12 47 31 70 45 56 4 -3 -6 -42 -21
-86 -36 -109 -54 -110 -89 -3 -31 91 -31 94 -9 90 10 -2 22 -22 31 -55z m195
40 c2 -10 16 -48 30 -85 24 -63 25 -68 8 -68 -10 0 -21 9 -24 20 -4 14 -14 20
-35 20 -22 0 -32 -6 -37 -20 -3 -11 -15 -20 -25 -20 -18 0 -18 4 7 68 14 37
28 75 30 85 3 9 13 17 23 17 10 0 20 -8 23 -17z m167 -53 l0 -70 35 0 c24 0
35 -5 35 -15 0 -12 -13 -15 -55 -15 l-55 0 0 85 c0 78 2 85 20 85 18 0 20 -7
20 -70z m183 53 c2 -10 16 -48 30 -85 25 -64 25 -68 7 -68 -10 0 -22 9 -25 20
-4 14 -15 20 -35 20 -20 0 -31 -6 -35 -20 -3 -11 -15 -20 -25 -20 -18 0 -18 4
7 68 14 37 28 75 30 85 3 9 13 17 23 17 10 0 20 -8 23 -17z m179 0 c38 -34 7
-93 -49 -93 -19 0 -23 -5 -23 -30 0 -23 -4 -30 -20 -30 -18 0 -20 7 -20 85 l0
85 47 0 c29 0 53 -6 65 -17z m226 5 c-3 -7 -17 -14 -31 -16 -26 -3 -27 -5 -27
-73 0 -55 -3 -69 -15 -69 -12 0 -15 14 -15 70 0 68 -1 70 -25 70 -16 0 -25 6
-25 15 0 12 15 15 71 15 52 0 70 -3 67 -12z m126 -4 c20 -19 20 -44 2 -69 -12
-17 -12 -23 0 -47 18 -34 18 -38 -1 -38 -8 0 -21 14 -30 30 -9 17 -22 30 -30
30 -10 0 -15 -10 -15 -30 0 -20 -5 -30 -15 -30 -12 0 -15 16 -15 85 l0 85 44
0 c27 0 51 -6 60 -16z m76 -69 c0 -69 -3 -85 -15 -85 -12 0 -15 16 -15 85 0
69 3 85 15 85 12 0 15 -16 15 -85z m103 33 l32 -53 3 53 c2 37 7 52 18 52 11
0 14 -17 14 -85 0 -105 -13 -110 -64 -27 l-35 57 -1 -57 c0 -45 -3 -58 -15
-58 -12 0 -15 16 -15 85 0 104 14 111 63 33z m137 17 c0 -33 2 -35 35 -35 33
0 35 2 35 35 0 24 5 35 15 35 12 0 15 -16 15 -85 0 -69 -3 -85 -15 -85 -10 0
-15 11 -15 35 0 33 -2 35 -35 35 -33 0 -35 -2 -35 -35 0 -24 -5 -35 -15 -35
-12 0 -15 16 -15 85 0 69 3 85 15 85 10 0 15 -11 15 -35z m1643 -82 c-13 -2
-33 -2 -45 0 -13 2 -3 4 22 4 25 0 35 -2 23 -4z m2000 0 c-13 -2 -35 -2 -50 0
-16 2 -5 4 22 4 28 0 40 -2 28 -4z m-4498 -74 c10 -15 -1 -23 -20 -15 -9 3
-13 10 -10 16 8 13 22 13 30 -1z m-1610 -281 c11 -66 21 -77 29 -32 17 95 37
101 58 17 l15 -58 12 58 c8 37 17 57 27 57 17 0 18 2 -3 -92 -13 -61 -20 -78
-34 -78 -12 0 -21 15 -31 58 l-15 57 -13 -57 c-10 -44 -18 -58 -31 -58 -17 0
-23 18 -44 133 -6 29 -4 37 8 37 10 0 18 -14 22 -42z m285 27 c0 -10 -11 -15
-35 -15 -28 0 -35 -4 -35 -20 0 -16 7 -20 30 -20 17 0 30 -4 30 -10 0 -5 -13
-10 -30 -10 -25 0 -30 -4 -30 -25 0 -22 4 -25 35 -25 24 0 35 -5 35 -15 0 -12
-13 -15 -55 -15 l-55 0 0 85 0 85 55 0 c42 0 55 -3 55 -15z m136 -6 c15 -17
16 -23 5 -41 -9 -15 -10 -23 -2 -31 34 -34 -3 -77 -65 -77 l-44 0 0 85 0 85
43 0 c32 0 49 -6 63 -21z m148 5 c31 -31 9 -49 -24 -19 -18 16 -50 11 -50 -9
0 -6 19 -20 43 -31 70 -33 59 -95 -17 -95 -28 0 -66 24 -66 42 0 4 9 8 20 8
11 0 20 -4 20 -9 0 -15 32 -22 47 -10 16 14 9 24 -38 47 -37 18 -49 53 -29 78
16 19 75 18 94 -2z m76 -69 c0 -69 -3 -85 -15 -85 -12 0 -15 16 -15 85 0 69 3
85 15 85 12 0 15 -16 15 -85z m150 70 c0 -9 -9 -15 -25 -15 -24 0 -25 -2 -25
-70 0 -56 -3 -70 -15 -70 -12 0 -15 14 -15 70 0 68 -1 70 -25 70 -16 0 -25 6
-25 15 0 12 14 15 65 15 51 0 65 -3 65 -15z m138 3 c-3 -7 -21 -14 -41 -16
-29 -3 -37 -7 -37 -23 0 -15 7 -19 35 -19 19 0 35 -4 35 -10 0 -5 -16 -10 -35
-10 -30 0 -35 -3 -35 -24 0 -21 5 -25 37 -28 62 -5 53 -28 -11 -28 l-56 0 0
85 0 85 56 0 c40 0 55 -4 52 -12z m658 -30 c-30 -138 -30 -162 -2 -139 26 21
75 30 106 19 55 -19 61 -56 32 -223 l-17 -100 -38 -3 c-44 -4 -44 -5 -21 138
9 54 14 105 11 114 -8 20 -66 22 -91 3 -12 -9 -23 -47 -38 -135 l-22 -122 -38
0 c-23 0 -38 5 -38 12 0 17 69 418 76 441 4 12 16 17 45 17 36 0 39 -2 35 -22z
m5989 -128 c3 -5 2 -10 -4 -10 -5 0 -13 5 -16 10 -3 6 -2 10 4 10 5 0 13 -4
16 -10z m1830 0 c-3 -5 -11 -10 -16 -10 -6 0 -7 5 -4 10 3 6 11 10 16 10 6 0
7 -4 4 -10z m-8014 -58 c37 -41 39 -96 7 -154 -31 -55 -84 -80 -180 -86 -62
-4 -78 -8 -78 -20 0 -8 -5 -44 -11 -79 l-11 -63 -39 0 c-32 0 -39 3 -39 20 0
11 16 109 35 217 19 108 35 199 35 201 0 2 57 2 126 0 l126 -3 29 -33z m750 0
c38 -42 39 -98 4 -157 -32 -55 -79 -77 -177 -83 -62 -4 -78 -8 -78 -20 0 -8
-5 -44 -11 -79 l-11 -63 -39 0 c-30 0 -39 4 -39 18 0 9 16 107 35 217 19 110
35 201 35 203 0 2 57 2 126 0 l126 -3 29 -33z m5490 -26 c-8 -60 -27 -86 -61
-86 -44 0 -72 87 -40 125 11 13 24 16 57 11 29 -4 43 -2 43 6 0 6 2 9 4 7 3
-3 1 -31 -3 -63z m-301 45 c-23 -6 -25 -12 -28 -69 -4 -82 -22 -80 -22 2 0 59
-2 65 -22 69 -13 2 4 4 37 5 39 0 51 -2 35 -7z m70 -21 c0 -27 3 -30 30 -30
27 0 30 3 30 30 0 20 5 30 15 30 12 0 15 -14 15 -70 0 -56 -3 -70 -15 -70 -10
0 -15 11 -15 35 0 32 -2 35 -30 35 -28 0 -30 -3 -30 -35 0 -24 -5 -35 -15 -35
-12 0 -15 14 -15 70 0 56 3 70 15 70 10 0 15 -10 15 -30z m290 -40 c0 -40 -4
-70 -10 -70 -6 0 -10 30 -10 70 0 40 4 70 10 70 6 0 10 -30 10 -70z m180 55
c18 -22 5 -31 -15 -11 -20 20 -29 20 -49 0 -32 -31 -12 -94 29 -94 30 0 36 36
8 43 -11 3 -7 5 10 6 23 1 27 -3 27 -28 0 -28 -18 -40 -57 -41 -44 0 -69 85
-36 122 20 22 66 24 83 3z m70 -55 c0 -40 -4 -70 -10 -70 -6 0 -10 30 -10 70
0 40 4 70 10 70 6 0 10 -30 10 -70z m127 1 c24 -63 23 -92 -1 -58 -17 22 -62
22 -75 0 -5 -10 -13 -15 -16 -11 -6 6 26 105 41 130 12 19 28 -1 51 -61z m103
24 c14 -25 28 -45 32 -45 5 0 8 20 8 45 0 25 5 45 10 45 6 0 10 -30 10 -70 0
-86 -13 -90 -57 -17 l-32 52 -1 -52 c0 -29 -4 -53 -10 -53 -6 0 -10 30 -10 70
0 84 14 91 50 25z m162 18 c2 -23 8 -29 36 -31 30 -3 32 -1 32 27 0 17 5 31
10 31 6 0 10 -30 10 -70 0 -40 -4 -70 -10 -70 -5 0 -10 16 -10 36 0 34 -1 35
-32 32 -29 -3 -33 -7 -36 -35 -6 -61 -22 -33 -22 37 0 68 15 98 22 43z m222 5
c22 -31 20 -74 -4 -98 -36 -36 -85 -17 -96 38 -14 68 63 113 100 60z m140 6
c10 -25 -2 -30 -19 -8 -22 30 -49 7 -53 -45 -4 -47 16 -63 50 -42 25 15 35 7
18 -14 -18 -21 -54 -19 -75 5 -21 24 -24 82 -5 105 17 21 76 19 84 -1z m249
-1 c-30 -21 -29 -31 5 -35 21 -2 28 -9 30 -31 6 -51 -33 -74 -70 -40 -37 33
-8 124 40 122 14 0 13 -3 -5 -16z m200 10 c-21 -4 -23 -10 -23 -69 0 -50 -3
-64 -15 -64 -12 0 -15 14 -15 64 0 59 -2 65 -22 69 -13 2 4 4 37 4 33 0 50 -2
38 -4z m67 -24 c0 -28 2 -30 33 -27 27 2 33 8 35 31 7 55 22 25 22 -43 0 -70
-16 -98 -22 -37 -3 28 -7 32 -35 35 -32 3 -33 2 -33 -32 0 -20 -4 -36 -10 -36
-6 0 -10 30 -10 70 0 40 4 70 10 70 6 0 10 -14 10 -31z m190 26 c0 -2 11 -34
25 -70 19 -52 21 -65 10 -65 -8 0 -15 7 -15 15 0 10 -11 15 -35 15 -24 0 -35
-5 -35 -15 0 -8 -7 -15 -16 -15 -11 0 -14 5 -9 18 4 9 16 41 27 70 12 28 27
52 34 52 8 0 14 -2 14 -5z m127 -42 l28 -48 3 48 c5 73 22 55 22 -23 0 -38 -4
-70 -9 -70 -5 0 -24 24 -43 53 l-33 52 -3 -52 c-4 -78 -22 -64 -22 17 0 86 15
92 57 23z m190 32 c9 -25 -6 -31 -22 -9 -23 32 -50 7 -50 -47 0 -41 2 -44 28
-47 21 -3 27 1 27 17 0 11 -8 22 -17 24 -11 3 -7 5 10 6 23 1 27 -3 27 -28 0
-48 -56 -57 -89 -15 -41 52 -16 114 45 114 22 0 37 -6 41 -15z m-907 -25 c0
-5 -4 -10 -10 -10 -5 0 -10 5 -10 10 0 6 5 10 10 10 6 0 10 -4 10 -10z m0 -91
c0 -5 -4 -9 -10 -9 -5 0 -10 7 -10 16 0 8 5 12 10 9 6 -3 10 -10 10 -16z
m-290 -29 c0 -5 -4 -10 -10 -10 -5 0 -10 5 -10 10 0 6 5 10 10 10 6 0 10 -4
10 -10z m-1510 -79 c-7 -13 -7 -22 0 -26 21 -13 10 -35 -17 -36 l-28 -1 30 -8
c24 -5 27 -8 13 -14 -50 -22 -80 32 -36 66 15 12 17 16 6 12 -26 -9 -22 5 5
16 34 13 39 12 27 -9z m241 5 c-9 -11 -9 -20 -2 -35 15 -28 14 -31 -15 -31
-14 0 -23 -4 -19 -10 3 -5 12 -7 20 -3 8 3 15 0 15 -7 0 -6 -11 -10 -27 -8
-22 2 -29 9 -31 31 -3 23 1 30 19 34 22 6 22 7 3 14 -18 6 -17 8 6 17 35 15
44 14 31 -2z m-4353 -9 c8 -10 2 -12 -28 -12 -30 0 -36 2 -28 12 6 7 18 13 28
13 10 0 22 -6 28 -13z m932 -2 c10 -12 10 -15 -3 -15 -9 0 -19 5 -22 10 -5 8
-11 7 -21 -1 -16 -13 -30 -6 -19 10 9 16 51 13 65 -4z m3000 6 c0 -5 -6 -11
-14 -14 -10 -4 -13 -18 -12 -41 2 -25 -1 -36 -10 -36 -10 0 -14 13 -14 40 0
29 -4 40 -15 40 -8 0 -15 5 -15 10 0 6 18 10 40 10 22 0 40 -4 40 -9z m30 -6
c0 -8 9 -15 19 -15 10 0 22 -7 25 -16 11 -28 6 -54 -10 -54 -8 0 -13 4 -10 9
8 12 -3 41 -15 41 -5 0 -9 -11 -9 -25 0 -14 -4 -25 -10 -25 -5 0 -10 23 -10
50 0 28 5 50 10 50 6 0 10 -7 10 -15z m80 5 c0 -5 -4 -10 -10 -10 -5 0 -10 5
-10 10 0 6 5 10 10 10 6 0 10 -4 10 -10z m201 -17 c0 -16 3 -22 6 -15 2 6 12
12 20 12 13 0 13 -3 3 -15 -10 -12 -10 -18 0 -30 7 -9 10 -19 6 -23 -4 -4 -14
2 -22 12 -12 17 -14 18 -14 3 0 -9 -4 -17 -10 -17 -5 0 -10 23 -10 50 0 51 19
72 21 23z m190 -4 c4 -13 7 -19 8 -13 1 5 7 19 15 30 14 18 15 18 27 -11 l13
-30 4 28 c2 15 10 27 18 27 8 0 14 -1 14 -2 -1 -21 -30 -93 -37 -95 -6 -2 -15
9 -21 24 l-10 28 -7 -27 c-4 -16 -13 -28 -20 -28 -7 0 -15 12 -19 28 -3 15 -9
38 -12 51 -5 18 -4 23 7 19 7 -2 16 -15 20 -29z m212 -1 c17 -2 22 -10 22 -33
0 -27 -4 -30 -32 -33 -33 -3 -33 -3 -33 41 0 43 12 73 18 44 2 -9 13 -17 25
-19z m137 22 c0 -5 -4 -10 -10 -10 -5 0 -10 5 -10 10 0 6 5 10 10 10 6 0 10
-4 10 -10z m294 -1 c-3 -6 0 -15 7 -20 8 -5 16 -3 21 4 4 6 10 9 13 5 3 -3 -3
-21 -13 -39 -21 -38 -58 -46 -76 -16 -9 15 -7 22 12 37 12 10 22 23 22 29 0 6
5 11 11 11 5 0 7 -5 3 -11z m76 1 c0 -5 -5 -10 -11 -10 -5 0 -7 5 -4 10 3 6 8
10 11 10 2 0 4 -4 4 -10z m80 -10 c0 -13 7 -20 20 -20 13 0 20 7 20 20 0 11 5
20 10 20 6 0 10 -22 10 -50 0 -27 -4 -50 -10 -50 -5 0 -10 9 -10 20 0 13 -7
20 -20 20 -13 0 -20 -7 -20 -20 0 -11 -4 -20 -10 -20 -5 0 -10 23 -10 50 0 28
5 50 10 50 6 0 10 -9 10 -20z m150 10 c0 -5 -7 -10 -15 -10 -11 0 -15 -11 -15
-40 0 -22 -4 -40 -10 -40 -5 0 -10 18 -10 40 0 29 -4 40 -15 40 -8 0 -15 5
-15 10 0 6 18 10 40 10 22 0 40 -4 40 -10z m52 -21 l11 -31 13 32 c19 44 38
33 42 -23 3 -50 -14 -66 -20 -19 l-4 27 -12 -27 c-6 -16 -16 -28 -21 -28 -5 0
-14 12 -19 28 l-10 27 -1 -27 c-2 -50 -21 -29 -21 22 0 39 4 50 16 50 8 0 20
-14 26 -31z m98 -9 c0 -36 3 -40 25 -40 14 0 25 -4 25 -10 0 -5 -16 -10 -35
-10 l-35 0 0 50 c0 28 5 50 10 50 6 0 10 -18 10 -40z m208 28 c19 -19 14 -30
-8 -18 -26 14 -40 5 -40 -26 0 -17 6 -24 19 -24 11 0 21 6 24 13 2 6 8 9 12 5
14 -14 -5 -38 -29 -38 -16 0 -32 9 -42 25 -15 23 -15 27 0 50 18 27 45 32 64
13z m86 6 c26 -10 18 -25 -9 -18 -14 3 -25 2 -25 -4 0 -5 12 -13 26 -16 19 -5
25 -12 22 -29 -4 -27 -48 -36 -68 -13 -10 13 -10 16 3 16 9 0 19 -5 22 -10 4
-6 11 -8 16 -5 16 11 10 24 -13 27 -26 3 -37 36 -16 49 16 10 22 11 42 3z m97
-11 c13 -15 11 -16 -13 -9 -16 3 -28 2 -28 -3 0 -5 12 -12 26 -15 19 -5 25
-12 22 -29 -4 -27 -48 -36 -68 -13 -14 18 -7 20 20 6 13 -7 21 -7 25 0 3 6 -5
14 -18 19 -34 13 -40 26 -21 45 20 21 38 20 55 -1z m164 7 c3 -5 2 -10 -4 -10
-5 0 -13 5 -16 10 -3 6 -2 10 4 10 5 0 13 -4 16 -10z m133 -37 c-2 -40 -7 -49
-24 -51 -21 -3 -42 24 -28 37 4 3 9 0 11 -6 10 -27 23 -11 23 27 0 22 5 40 11
40 6 0 9 -19 7 -47z m313 30 c13 -15 11 -16 -13 -9 -16 3 -28 2 -28 -3 0 -5
12 -12 26 -15 19 -5 25 -12 22 -29 -4 -28 -62 -38 -71 -13 -7 18 18 23 28 6 7
-12 25 -4 25 11 0 5 -8 9 -19 9 -30 0 -45 25 -26 44 21 21 39 20 56 -1z m169
7 c0 -5 -5 -10 -11 -10 -5 0 -7 5 -4 10 3 6 8 10 11 10 2 0 4 -4 4 -10z
m-2539 -7 c5 -55 2 -83 -8 -83 -7 0 -14 10 -14 23 -1 12 -3 32 -4 45 -1 13 3
22 11 22 8 0 14 -3 15 -7z m660 -5 c5 -52 2 -78 -7 -78 -7 0 -14 15 -17 33 -5
35 0 57 14 57 5 0 10 -6 10 -12z m2008 -16 c-13 -5 -11 -36 3 -50 9 -9 8 -12
-5 -12 -11 0 -17 8 -17 24 0 14 -4 28 -10 31 -6 4 -5 11 2 19 9 9 16 10 24 2
7 -6 8 -12 3 -14z m-2789 -27 c0 -19 -4 -35 -10 -35 -5 0 -10 16 -10 35 0 19
5 35 10 35 6 0 10 -16 10 -35z m548 13 c3 -14 -4 -18 -25 -19 l-28 -2 28 -4
c32 -5 26 -23 -8 -23 -28 0 -43 34 -24 56 16 19 53 14 57 -8z m152 11 c0 -6
-8 -8 -17 -5 -12 4 -9 -1 6 -12 13 -11 21 -24 17 -31 -9 -14 -56 -15 -56 0 0
6 7 9 15 5 8 -3 15 -1 15 4 0 6 -7 10 -15 10 -8 0 -15 9 -15 20 0 15 7 20 25
20 14 0 25 -5 25 -11z m40 -24 c0 -19 -4 -35 -10 -35 -5 0 -10 16 -10 35 0 19
5 35 10 35 6 0 10 -16 10 -35z m120 31 c0 -2 3 -11 6 -20 5 -12 0 -16 -21 -16
-14 0 -24 -4 -21 -9 3 -5 16 -7 29 -4 17 4 19 3 11 -6 -29 -31 -76 4 -60 45 5
12 56 21 56 10z m79 -18 l8 -22 5 22 c4 12 11 22 16 22 7 0 6 -12 -1 -35 -13
-43 -32 -45 -46 -4 -13 39 -13 39 -1 39 6 0 14 -10 19 -22z m171 -13 c0 -19
-4 -35 -10 -35 -5 0 -10 16 -10 35 0 19 5 35 10 35 6 0 10 -16 10 -35z m851
13 l0 -23 11 23 c6 12 15 22 20 22 10 0 10 -1 -3 -39 -14 -41 -33 -39 -46 4
-9 29 -9 35 3 35 8 0 14 -10 15 -22z m109 -13 c0 -32 -2 -35 -30 -35 -23 0
-30 4 -30 20 0 13 7 20 20 20 11 0 20 4 20 9 0 5 -10 7 -22 3 -14 -3 -19 -2
-14 6 4 7 18 12 32 12 21 0 24 -5 24 -35z m190 -1 c0 -33 -2 -35 -27 -32 -34
4 -46 38 -14 38 12 0 21 4 21 9 0 5 -10 7 -22 3 -14 -3 -19 -2 -14 6 4 7 18
12 32 12 21 0 24 -5 24 -36z m39 14 l8 -22 5 22 c4 12 11 22 16 22 7 0 6 -12
-1 -35 -6 -19 -16 -35 -22 -35 -6 0 -16 16 -22 35 -12 38 2 50 16 13z m109
-15 c3 -31 1 -33 -27 -33 -24 0 -31 4 -31 20 0 13 7 20 20 20 11 0 20 5 20 11
0 6 -9 8 -21 4 -15 -5 -19 -4 -14 5 4 6 17 10 28 8 17 -2 23 -11 25 -35z m162
27 c0 -6 -8 -10 -17 -8 -10 2 -19 -5 -21 -16 -3 -16 0 -18 22 -12 20 5 24 3
20 -9 -8 -20 -50 -19 -58 1 -11 28 3 54 30 54 13 0 24 -5 24 -10z m90 -25 c0
-19 -4 -35 -10 -35 -5 0 -10 13 -10 30 0 22 -4 28 -15 24 -8 -4 -15 -17 -15
-30 0 -13 -4 -24 -10 -24 -5 0 -10 15 -10 33 0 32 2 34 35 35 34 1 35 0 35
-33z m85 16 c8 -26 -4 -51 -26 -51 -10 0 -19 -4 -19 -10 0 -5 -4 -10 -10 -10
-5 0 -10 20 -10 45 0 43 1 45 29 45 20 0 32 -6 36 -19z m-7394 -1 c10 -6 19
-20 19 -30 0 -24 -13 -26 -30 -5 -34 42 -86 -17 -62 -70 13 -28 56 -35 66 -10
3 8 12 15 20 15 24 0 3 -43 -26 -54 -36 -13 -73 0 -86 29 -38 83 26 163 99
125z m79 -25 c0 -33 2 -35 35 -35 33 0 35 2 35 35 0 28 4 35 20 35 18 0 20 -7
20 -85 0 -78 -2 -85 -20 -85 -16 0 -20 7 -20 35 0 33 -2 35 -35 35 -33 0 -35
-2 -35 -35 0 -24 -5 -35 -15 -35 -12 0 -15 16 -15 85 0 69 3 85 15 85 10 0 15
-11 15 -35z m170 -29 c0 -44 5 -67 15 -76 28 -23 45 5 45 76 0 50 3 64 15 64
12 0 15 -15 15 -75 0 -63 -3 -76 -19 -85 -29 -15 -67 -12 -85 6 -22 22 -23
154 -1 154 12 0 15 -14 15 -64z m164 27 l18 -38 19 38 c11 20 26 37 34 37 20
0 19 -2 -10 -60 -14 -27 -25 -63 -25 -80 0 -20 -5 -30 -15 -30 -9 0 -15 9 -15
25 0 14 -14 52 -30 85 -27 54 -28 60 -12 60 11 0 25 -14 36 -37z m216 22 c0
-10 -11 -15 -35 -15 -28 0 -35 -4 -35 -20 0 -16 7 -20 30 -20 20 0 30 -5 30
-15 0 -10 -10 -15 -30 -15 -23 0 -30 -4 -30 -20 0 -16 7 -20 35 -20 24 0 35
-5 35 -15 0 -12 -13 -15 -55 -15 l-55 0 0 85 0 85 55 0 c42 0 55 -3 55 -15z
m92 -37 l33 -53 3 53 c2 37 7 52 18 52 11 0 14 -17 14 -85 0 -104 -15 -111
-63 -33 l-32 52 -3 -52 c-2 -37 -7 -52 -18 -52 -11 0 -14 17 -14 85 0 103 13
110 62 33z m225 2 c15 -27 31 -50 36 -50 4 0 7 23 7 50 0 38 4 50 15 50 12 0
15 -16 15 -85 0 -74 -2 -85 -18 -85 -10 0 -30 21 -49 53 l-32 52 -1 -52 c0
-46 -3 -53 -20 -53 -18 0 -20 7 -20 85 0 77 2 85 19 85 13 0 29 -17 48 -50z
m217 34 c31 -30 14 -45 -24 -22 -29 18 -54 -1 -58 -44 -3 -39 24 -73 52 -62
20 8 21 34 1 34 -8 0 -15 7 -15 15 0 10 10 15 30 15 28 0 30 -2 30 -39 0 -42
-11 -51 -61 -51 -44 0 -69 31 -69 85 0 32 6 51 20 65 24 24 72 26 94 4z m76
-19 c0 -33 2 -35 35 -35 33 0 35 2 35 35 0 28 4 35 20 35 18 0 20 -7 20 -85 0
-78 -2 -85 -20 -85 -16 0 -20 7 -20 35 0 34 -2 35 -36 35 -35 0 -36 -1 -32
-35 3 -29 1 -35 -14 -35 -16 0 -18 10 -18 85 0 69 3 85 15 85 10 0 15 -11 15
-35z m180 -50 c0 -78 -2 -85 -20 -85 -18 0 -20 7 -20 85 0 78 2 85 20 85 18 0
20 -7 20 -85z m140 70 c0 -11 -11 -15 -40 -15 -33 0 -40 -3 -40 -20 0 -16 7
-20 35 -20 24 0 35 -5 35 -15 0 -10 -11 -15 -35 -15 -28 0 -35 -4 -35 -20 0
-17 7 -20 40 -20 29 0 40 -4 40 -15 0 -12 -13 -15 -55 -15 l-55 0 0 85 0 85
55 0 c42 0 55 -3 55 -15z m132 -2 c39 -35 12 -93 -43 -93 -26 0 -29 -3 -29
-30 0 -23 -4 -30 -20 -30 -18 0 -20 7 -20 85 l0 85 47 0 c29 0 53 -6 65 -17z
m4528 -43 c0 -11 -4 -20 -8 -20 -4 0 -8 9 -9 20 -1 11 2 20 8 20 5 0 9 -9 9
-20z m534 -86 c8 -21 -11 -44 -35 -44 -11 0 -19 -7 -19 -15 0 -8 -4 -15 -10
-15 -5 0 -10 20 -10 45 0 44 0 45 34 45 22 0 36 -6 40 -16z m36 2 c0 -7 9 -16
20 -19 15 -4 20 0 20 14 0 10 5 19 10 19 6 0 10 -20 10 -45 0 -25 -4 -45 -10
-45 -5 0 -10 9 -10 20 0 12 -7 20 -16 20 -9 0 -18 -9 -21 -20 -9 -36 -23 -21
-23 25 0 25 5 45 10 45 6 0 10 -6 10 -14z m154 -2 c8 -21 -11 -44 -35 -44 -11
0 -19 -7 -19 -15 0 -8 -4 -15 -10 -15 -5 0 -10 20 -10 45 0 44 0 45 34 45 22
0 36 -6 40 -16z m296 7 c0 -5 12 -12 26 -15 20 -5 25 -12 22 -34 -2 -22 -9
-28 -35 -30 -33 -3 -33 -3 -33 42 0 25 5 46 10 46 6 0 10 -4 10 -9z m-85 -28
c-11 -7 -16 -13 -12 -13 4 0 3 -9 -3 -21 -13 -24 -48 -22 -63 3 -17 25 10 51
45 44 16 -3 28 -1 28 5 0 6 5 7 12 3 7 -5 5 -11 -7 -21z m-98 0 c3 -7 -3 -9
-16 -6 -17 4 -21 1 -21 -17 0 -18 4 -20 23 -15 17 6 19 4 11 -5 -27 -28 -65 7
-50 46 7 18 47 15 53 -3z m301 -20 c3 -31 1 -33 -27 -33 -36 0 -44 28 -11 37
11 3 20 9 20 13 0 5 -10 6 -22 2 -15 -4 -19 -2 -14 7 5 7 18 11 29 9 17 -2 23
-11 25 -35z m80 -3 c3 -29 -10 -38 -14 -9 -1 5 -2 14 -3 19 -2 22 -21 9 -21
-15 0 -14 -4 -25 -10 -25 -5 0 -10 15 -10 34 0 32 2 35 28 33 23 -2 27 -7 30
-37z m-5918 -5 c0 -8 -7 -15 -15 -15 -16 0 -20 12 -8 23 11 12 23 8 23 -8z
m5095 -125 c0 -18 -6 -26 -22 -28 -13 -2 -23 -10 -23 -18 0 -8 -4 -14 -10 -14
-5 0 -10 21 -10 46 0 45 0 45 33 42 27 -2 32 -7 32 -28z m45 15 c0 -8 9 -15
20 -15 11 0 20 7 20 15 0 8 5 15 10 15 6 0 10 -20 10 -45 0 -46 -14 -61 -23
-25 -3 11 -12 20 -21 20 -9 0 -16 -8 -16 -20 0 -11 -4 -20 -10 -20 -5 0 -10
20 -10 45 0 25 5 45 10 45 6 0 10 -7 10 -15z m148 -12 c-2 -20 -9 -29 -25 -31
-13 -2 -23 -10 -23 -18 0 -8 -4 -14 -10 -14 -5 0 -10 20 -10 45 0 45 0 45 36
45 33 0 35 -2 32 -27z m192 8 c18 -35 12 -68 -13 -73 -48 -9 -66 19 -24 41
l22 11 -24 -6 c-18 -5 -22 -3 -15 7 5 8 9 17 10 22 1 4 2 9 3 12 3 13 31 3 41
-14z m-77 -10 c11 -1 8 -61 -3 -61 -5 0 -10 11 -10 25 0 16 -6 25 -15 25 -9 0
-15 -9 -15 -25 0 -14 -4 -25 -10 -25 -5 0 -10 15 -10 34 0 32 2 34 28 31 15
-2 30 -4 35 -4z m155 -4 c14 -11 17 -57 3 -57 -5 0 -11 10 -13 22 -5 32 -28
35 -28 4 0 -14 -4 -26 -10 -26 -5 0 -10 15 -10 34 0 30 3 35 23 34 12 -1 28
-6 35 -11z m87 -32 c0 -43 -21 -63 -51 -50 -16 8 -15 9 11 13 30 5 30 5 5 11
-16 5 -26 15 -28 30 -4 27 13 42 43 37 16 -2 20 -11 20 -41z m99 39 c23 -9 20
-26 -4 -19 -16 5 -20 2 -20 -15 0 -17 4 -20 20 -15 21 7 29 -10 8 -18 -35 -12
-63 34 -36 61 14 14 12 14 32 6z m94 -30 c2 -24 -1 -33 -17 -37 -25 -6 -60 16
-42 27 6 4 8 12 5 18 -4 6 0 14 7 19 25 16 44 5 47 -27z m66 30 c20 -8 21 -47
2 -63 -29 -24 -65 14 -46 50 11 20 19 23 44 13z m-7855 -100 c5 4 12 2 15 -2
5 -8 -13 -9 -46 -3 -5 0 -8 6 -8 12 0 8 4 8 15 -1 8 -6 19 -9 24 -6z m1340 3
c8 -11 5 -14 -19 -14 -24 0 -27 3 -19 14 6 7 15 13 19 13 4 0 13 -6 19 -13z
m-2984 -7 c3 -5 2 -10 -4 -10 -5 0 -13 5 -16 10 -3 6 -2 10 4 10 5 0 13 -4 16
-10z m-259 -47 c-11 -11 -19 6 -11 24 8 17 8 17 12 0 3 -10 2 -21 -1 -24z m30
0 c-11 -11 -19 6 -11 24 8 17 8 17 12 0 3 -10 2 -21 -1 -24z m3424 23 c0 -8
-4 -18 -10 -21 -5 -3 -10 3 -10 14 0 12 5 21 10 21 6 0 10 -6 10 -14z m30 0
c0 -8 -4 -18 -10 -21 -5 -3 -10 3 -10 14 0 12 5 21 10 21 6 0 10 -6 10 -14z
m5900 -1 c-10 -12 -10 -21 -1 -41 22 -50 -34 -91 -59 -44 -19 36 18 92 64 99
5 0 3 -6 -4 -14z m-9206 -17 c21 -30 20 -54 -4 -78 -29 -29 -70 -27 -70 3 0
13 -5 28 -12 35 -9 9 -9 12 0 12 7 0 12 11 12 25 0 21 5 25 29 25 20 0 35 -8
45 -22z m114 -35 c22 -58 20 -82 -2 -50 -16 21 -52 22 -60 2 -3 -8 -10 -15
-15 -15 -6 0 0 27 11 60 12 33 27 60 34 60 6 0 21 -26 32 -57z m120 45 c7 -7
12 -27 12 -44 0 -59 -54 -85 -84 -42 -31 44 -13 98 32 98 16 0 33 -5 40 -12z
m162 2 c0 -5 -9 -10 -20 -10 -17 0 -20 -7 -20 -50 0 -27 -4 -50 -10 -50 -5 0
-10 23 -10 50 0 37 -4 50 -14 50 -8 0 -18 5 -21 10 -4 6 13 10 44 10 28 0 51
-4 51 -10z m88 -47 c22 -58 20 -82 -2 -50 -16 21 -52 22 -60 2 -3 -8 -10 -15
-15 -15 -6 0 0 27 11 60 12 33 27 60 34 60 6 0 21 -26 32 -57z m120 45 c17
-17 15 -74 -4 -92 -46 -47 -107 22 -74 85 12 22 59 26 78 7z m162 2 c0 -5 -9
-10 -20 -10 -17 0 -20 -7 -20 -50 0 -27 -4 -50 -10 -50 -5 0 -10 23 -10 50 0
37 -4 50 -14 50 -8 0 -18 5 -21 10 -4 6 13 10 44 10 28 0 51 -4 51 -10z m40
-15 c0 -20 5 -25 25 -25 20 0 25 5 25 25 0 16 6 25 15 25 12 0 15 -13 15 -60
0 -47 -3 -60 -15 -60 -9 0 -15 9 -15 25 0 20 -5 25 -25 25 -20 0 -25 -5 -25
-25 0 -14 -4 -25 -10 -25 -6 0 -10 27 -10 60 0 33 4 60 10 60 6 0 10 -11 10
-25z m180 15 c0 -5 -13 -10 -30 -10 -20 0 -30 -5 -30 -15 0 -9 9 -15 25 -15
14 0 25 -4 25 -10 0 -5 -11 -10 -25 -10 -16 0 -25 -6 -25 -15 0 -10 10 -15 30
-15 17 0 30 -4 30 -10 0 -5 -18 -10 -40 -10 l-40 0 0 60 0 60 40 0 c22 0 40
-4 40 -10z m104 -6 c21 -21 20 -57 -3 -85 -16 -20 -23 -22 -47 -14 -24 9 -30
17 -32 48 -2 21 2 45 9 53 15 19 54 18 73 -2z m126 -22 l25 -37 3 38 c5 60 22
43 22 -23 0 -73 -14 -78 -50 -17 l-25 42 -3 -42 c-5 -65 -22 -51 -22 17 0 71
13 77 50 22z m100 13 c0 -20 5 -25 25 -25 20 0 25 5 25 25 0 14 5 25 10 25 6
0 10 -27 10 -60 0 -33 -4 -60 -10 -60 -5 0 -10 11 -10 25 0 20 -5 25 -25 25
-20 0 -25 -5 -25 -25 0 -16 -6 -25 -15 -25 -12 0 -15 13 -15 60 0 47 3 60 15
60 9 0 15 -9 15 -25z m120 -25 c0 -43 3 -50 20 -50 17 0 20 7 20 50 0 38 4 50
15 50 11 0 15 -12 15 -44 0 -61 -28 -88 -74 -70 -12 5 -16 20 -16 60 0 30 5
54 10 54 6 0 10 -22 10 -50z m220 35 c16 -19 5 -34 -12 -17 -31 31 -67 -2 -53
-48 7 -22 35 -26 53 -8 6 6 14 9 17 6 9 -9 -25 -38 -45 -38 -42 0 -64 56 -40
101 13 23 62 26 80 4z m107 -45 c17 -49 19 -60 7 -60 -8 0 -14 7 -14 15 0 21
-40 19 -56 -2 -23 -33 -25 -7 -3 51 12 31 27 56 33 56 6 0 21 -27 33 -60z m55
13 c3 -41 6 -48 26 -51 20 -3 22 0 22 47 0 28 5 51 10 51 14 0 12 -94 -2 -108
-15 -15 -51 -15 -66 0 -14 14 -16 108 -3 108 6 0 11 -21 13 -47z m212 31 c37
-36 7 -104 -46 -104 -28 0 -28 1 -28 60 0 60 0 60 29 60 16 0 37 -7 45 -16z
m126 -3 c24 -45 2 -101 -40 -101 -42 0 -64 56 -40 101 7 12 21 19 40 19 19 0
33 -7 40 -19z m108 -38 c22 -58 20 -82 -2 -50 -16 21 -52 22 -60 2 -3 -8 -10
-15 -15 -15 -6 0 0 27 11 60 12 33 27 60 34 60 6 0 21 -26 32 -57z m85 20 l22
-38 3 38 c5 60 22 43 22 -23 0 -33 -4 -60 -9 -60 -6 0 -21 19 -35 43 l-26 42
0 -42 c0 -24 -4 -43 -10 -43 -6 0 -10 27 -10 60 0 35 4 60 10 60 6 0 21 -17
33 -37z m97 12 c0 -20 5 -25 25 -25 20 0 25 5 25 25 0 16 6 25 15 25 12 0 15
-13 15 -60 0 -47 -3 -60 -15 -60 -9 0 -15 9 -15 25 0 20 -5 25 -25 25 -20 0
-25 -5 -25 -25 0 -14 -4 -25 -10 -25 -6 0 -10 27 -10 60 0 33 4 60 10 60 6 0
10 -11 10 -25z m192 -12 l23 -38 3 38 c5 60 22 43 22 -23 0 -35 -4 -60 -10
-60 -6 0 -21 17 -33 38 l-22 37 -3 -37 c-2 -25 -8 -38 -18 -38 -11 0 -14 14
-14 60 0 72 16 79 52 23z m158 22 c18 -21 5 -31 -15 -12 -25 26 -47 10 -43
-32 2 -29 8 -37 26 -39 24 -4 32 22 10 31 -7 3 -3 6 10 6 17 1 22 -5 22 -24 0
-18 -7 -26 -27 -31 -33 -9 -54 4 -66 40 -18 54 48 103 83 61z m60 -10 c0 -20
5 -25 25 -25 20 0 25 5 25 25 0 14 5 25 10 25 6 0 10 -27 10 -60 0 -33 -4 -60
-10 -60 -5 0 -10 11 -10 25 0 20 -5 25 -25 25 -20 0 -25 -5 -25 -25 0 -16 -6
-25 -15 -25 -12 0 -15 13 -15 60 0 47 3 60 15 60 9 0 15 -9 15 -25z m120 -35
c0 -33 -4 -60 -10 -60 -6 0 -10 27 -10 60 0 33 4 60 10 60 6 0 10 -27 10 -60z
m110 50 c0 -5 -13 -10 -30 -10 -20 0 -30 -5 -30 -15 0 -9 9 -15 25 -15 14 0
25 -4 25 -10 0 -5 -11 -10 -25 -10 -16 0 -25 -6 -25 -15 0 -10 10 -15 30 -15
17 0 30 -4 30 -10 0 -5 -18 -10 -40 -10 l-40 0 0 60 0 60 40 0 c22 0 40 -4 40
-10z m100 -5 c18 -22 3 -53 -30 -60 -21 -5 -30 -13 -30 -26 0 -10 -4 -19 -10
-19 -6 0 -10 27 -10 60 l0 60 34 0 c18 0 39 -7 46 -15z m5368 -12 c13 -26 4
-43 -24 -43 -17 0 -24 -6 -24 -20 0 -11 -4 -20 -10 -20 -5 0 -10 23 -10 50 0
49 1 50 30 50 18 0 33 -7 38 -17z m172 7 c0 -5 -4 -10 -10 -10 -5 0 -10 5 -10
10 0 6 5 10 10 10 6 0 10 -4 10 -10z m520 6 c0 -3 -4 -8 -10 -11 -5 -3 -10 -1
-10 4 0 6 5 11 10 11 6 0 10 -2 10 -4z m70 -17 c0 -16 4 -19 23 -14 17 6 20 5
10 -5 -9 -10 -8 -18 4 -36 18 -28 8 -32 -19 -7 -17 15 -18 15 -18 0 0 -10 -4
-17 -10 -17 -5 0 -10 23 -10 50 0 28 5 50 10 50 6 0 10 -9 10 -21z m80 6 c0
-8 3 -14 8 -14 25 4 32 -4 32 -37 0 -21 -4 -33 -10 -29 -5 3 -10 17 -10 31 0
13 -4 24 -10 24 -5 0 -10 -11 -10 -24 0 -14 -4 -28 -10 -31 -6 -4 -10 13 -10
44 0 28 5 51 10 51 6 0 10 -7 10 -15z m104 1 c-3 -7 2 -16 10 -19 38 -15 5
-74 -34 -62 -25 8 -29 65 -5 65 8 0 14 3 14 8 -3 14 1 22 11 22 5 0 7 -6 4
-14z m-573 -3 c5 -75 5 -81 -7 -76 -6 2 -14 19 -17 36 -5 34 -1 47 14 47 5 0
9 -3 10 -7z m-250 -13 c38 -21 12 -79 -31 -65 -33 10 -27 65 8 74 2 1 12 -4
23 -9z m113 4 c24 -9 21 -61 -4 -69 -23 -7 -50 10 -50 31 0 11 26 44 35 44 2
0 10 -3 19 -6z m96 -19 c0 -3 -10 -4 -22 -2 -15 1 -23 -4 -26 -17 -3 -16 0
-18 24 -12 24 6 26 5 15 -8 -18 -22 -38 -20 -51 3 -13 25 -13 27 6 45 12 12
20 13 35 6 10 -6 19 -13 19 -15z m151 9 c12 -15 11 -16 -9 -10 -18 6 -22 4
-22 -14 0 -17 4 -20 20 -15 23 7 28 -10 5 -19 -26 -10 -45 5 -45 34 0 19 6 30
18 33 9 3 18 5 18 6 1 0 8 -6 15 -15z m559 -29 c0 -29 -3 -32 -27 -31 -35 1
-42 29 -11 44 l23 12 -25 -5 c-24 -6 -24 -5 -7 9 27 21 47 9 47 -29z m-988 23
c-7 -7 -12 -20 -12 -29 0 -10 -4 -21 -10 -24 -6 -4 -10 8 -10 29 0 30 3 36 22
36 17 0 19 -3 10 -12z m118 -27 c0 -22 -5 -43 -11 -46 -15 -10 -16 -5 -11 43
5 53 22 55 22 3z m368 -9 c7 -2 12 6 12 22 0 14 5 26 10 26 6 0 10 -15 10 -34
0 -32 -2 -35 -27 -33 -24 2 -28 7 -30 37 -1 29 -1 31 5 11 4 -14 13 -26 20
-29z m152 13 c0 -19 -4 -35 -10 -35 -5 0 -10 16 -10 35 0 19 5 35 10 35 6 0
10 -16 10 -35z m-8780 -65 c0 -5 -4 -10 -10 -10 -5 0 -10 5 -10 10 0 6 5 10
10 10 6 0 10 -4 10 -10z m2590 0 c0 -5 -4 -10 -10 -10 -5 0 -10 5 -10 10 0 6
5 10 10 10 6 0 10 -4 10 -10z"/>
<path d="M2626 1768 c-9 -35 -8 -38 15 -38 16 0 19 4 14 23 -11 35 -22 41 -29
15z"/>
<path d="M2976 1768 c-9 -35 -8 -38 15 -38 16 0 19 4 14 23 -11 35 -22 41 -29
15z"/>
<path d="M3120 1785 c0 -23 4 -26 28 -23 19 2 27 9 27 23 0 14 -8 21 -27 23
-24 3 -28 0 -28 -23z"/>
<path d="M3470 1785 c0 -20 5 -25 24 -25 24 0 41 23 30 41 -3 5 -16 9 -30 9
-19 0 -24 -5 -24 -25z"/>
<path d="M1740 1360 c0 -15 7 -20 25 -20 18 0 25 5 25 20 0 15 -7 20 -25 20
-18 0 -25 -5 -25 -20z"/>
<path d="M1740 1295 c0 -20 5 -25 24 -25 33 0 44 20 21 37 -28 20 -45 16 -45
-12z"/>
<path d="M2576 1118 c-4 -24 -9 -58 -12 -75 l-6 -33 64 0 c78 0 108 23 108 83
0 47 -28 67 -96 67 l-51 0 -7 -42z"/>
<path d="M3326 1118 c-4 -24 -9 -58 -12 -75 l-6 -33 64 0 c80 0 108 20 108 80
0 51 -26 70 -96 70 l-51 0 -7 -42z"/>
<path d="M8951 1186 c-7 -8 -11 -32 -9 -53 2 -28 8 -39 22 -42 39 -7 62 62 30
93 -19 20 -28 20 -43 2z"/>
<path d="M9416 1158 c-9 -35 -8 -38 15 -38 16 0 19 4 14 23 -11 35 -22 41 -29
15z"/>
<path d="M9892 1191 c-9 -5 -12 -24 -10 -52 2 -36 7 -45 25 -47 27 -4 47 30
38 66 -9 37 -28 49 -53 33z"/>
<path d="M10315 1140 c-11 -18 5 -50 26 -50 16 0 20 6 17 27 -3 28 -31 43 -43
23z"/>
<path d="M10772 1155 c-16 -34 -15 -35 8 -35 21 0 27 24 12 48 -6 9 -12 5 -20
-13z"/>
<path d="M8922 918 c6 -18 28 -21 28 -4 0 9 -7 16 -16 16 -9 0 -14 -5 -12 -12z"/>
<path d="M9350 916 c0 -19 4 -24 15 -19 18 6 16 34 -2 41 -8 2 -13 -6 -13 -22z"/>
<path d="M8850 930 c0 -5 5 -10 11 -10 5 0 7 5 4 10 -3 6 -8 10 -11 10 -2 0
-4 -4 -4 -10z"/>
<path d="M9165 930 c-3 -5 1 -10 10 -10 9 0 13 5 10 10 -3 6 -8 10 -10 10 -2
0 -7 -4 -10 -10z"/>
<path d="M10370 900 c0 -5 5 -10 10 -10 6 0 10 5 10 10 0 6 -4 10 -10 10 -5 0
-10 -4 -10 -10z"/>
<path d="M10560 900 c0 -5 5 -10 10 -10 6 0 10 5 10 10 0 6 -4 10 -10 10 -5 0
-10 -4 -10 -10z"/>
<path d="M10710 899 c0 -5 5 -7 10 -4 6 3 10 8 10 11 0 2 -4 4 -10 4 -5 0 -10
-5 -10 -11z"/>
<path d="M11046 933 c-12 -12 -6 -33 9 -33 8 0 15 6 15 14 0 17 -14 28 -24 19z"/>
<path d="M5310 885 c0 -20 5 -25 24 -25 14 0 27 4 30 9 11 18 -6 41 -30 41
-19 0 -24 -5 -24 -25z"/>
<path d="M10395 789 c-10 -15 1 -23 20 -15 9 3 13 10 10 16 -8 13 -22 13 -30
-1z"/>
<path d="M10585 789 c-10 -15 1 -23 20 -15 9 3 13 10 10 16 -8 13 -22 13 -30
-1z"/>
<path d="M10932 754 c4 -21 22 -23 26 -1 2 10 -3 17 -13 17 -10 0 -15 -6 -13
-16z"/>
<path d="M10782 754 c4 -21 22 -23 26 -1 2 10 -3 17 -13 17 -10 0 -15 -6 -13
-16z"/>
<path d="M11010 740 c0 -5 5 -10 10 -10 6 0 10 5 10 10 0 6 -4 10 -10 10 -5 0
-10 -4 -10 -10z"/>
<path d="M10260 626 c0 -9 7 -16 16 -16 9 0 14 5 12 12 -6 18 -28 21 -28 4z"/>
<path d="M10450 625 c0 -8 7 -15 15 -15 8 0 15 4 15 9 0 5 -7 11 -15 15 -9 3
-15 0 -15 -9z"/>
<path d="M10655 580 c-3 -5 -1 -10 4 -10 6 0 11 5 11 10 0 6 -2 10 -4 10 -3 0
-8 -4 -11 -10z"/>
<path d="M10810 596 c0 -9 7 -16 16 -16 9 0 14 5 12 12 -6 18 -28 21 -28 4z"/>
<path d="M11008 603 c7 -3 16 -2 19 1 4 3 -2 6 -13 5 -11 0 -14 -3 -6 -6z"/>
<path d="M11010 580 c0 -5 5 -10 10 -10 6 0 10 5 10 10 0 6 -4 10 -10 10 -5 0
-10 -4 -10 -10z"/>
<path d="M11082 593 c5 -25 28 -28 28 -4 0 12 -6 21 -16 21 -9 0 -14 -7 -12
-17z"/>
<path d="M10695 440 c-7 -12 2 -30 16 -30 5 0 9 9 9 20 0 21 -15 27 -25 10z"/>
<path d="M1480 466 c0 -8 6 -17 13 -19 10 -4 10 -6 0 -6 -18 -1 -16 -41 2 -41
19 0 38 36 30 60 -7 23 -45 27 -45 6z"/>
<path d="M1606 455 c-10 -26 -7 -35 9 -35 17 0 19 18 6 38 -7 11 -10 10 -15
-3z"/>
<path d="M1705 461 c-10 -34 4 -63 28 -59 18 2 22 10 22 38 0 28 -4 36 -22 38
-14 2 -23 -3 -28 -17z"/>
<path d="M1976 455 c-10 -26 -7 -35 9 -35 17 0 19 18 6 38 -7 11 -10 10 -15
-3z"/>
<path d="M2075 461 c-10 -34 4 -63 28 -59 18 2 22 10 22 38 0 28 -4 36 -22 38
-14 2 -23 -3 -28 -17z"/>
<path d="M2564 466 c-11 -29 1 -61 24 -64 20 -3 22 1 22 37 0 35 -3 41 -20 41
-11 0 -23 -6 -26 -14z"/>
<path d="M3257 456 c-11 -27 -8 -36 8 -36 16 0 17 5 6 34 -7 18 -8 18 -14 2z"/>
<path d="M3510 440 c0 -33 3 -40 19 -40 22 0 35 30 26 60 -3 11 -15 20 -26 20
-16 0 -19 -7 -19 -40z"/>
<path d="M3624 465 c-10 -26 5 -65 26 -65 21 0 34 31 25 60 -7 23 -43 27 -51
5z"/>
<path d="M3756 455 c-10 -26 -7 -35 9 -35 17 0 19 18 6 38 -7 11 -10 10 -15
-3z"/>
<path d="M4660 460 c0 -23 35 -28 43 -6 7 18 -1 26 -25 26 -11 0 -18 -7 -18
-20z"/>
<path d="M10040 460 c0 -5 7 -10 15 -10 8 0 15 5 15 10 0 6 -7 10 -15 10 -8 0
-15 -4 -15 -10z"/>
<path d="M11010 430 c0 -13 5 -20 13 -17 6 2 12 10 12 17 0 7 -6 15 -12 18 -8
2 -13 -5 -13 -18z"/>
<path d="M10180 431 c0 -12 6 -21 16 -21 9 0 14 7 12 17 -5 25 -28 28 -28 4z"/>
<path d="M10308 413 c7 -3 16 -2 19 1 4 3 -2 6 -13 5 -11 0 -14 -3 -6 -6z"/>
</g>
</svg>
